<?xml version="1.0" encoding="UTF-8" standalone="no"?>
<svg
   width="27"
   height="27"
   viewBox="0 0 27 27"
   fill="none"
   version="1.1"
   id="svg1"
   sodipodi:docname="arrow-right.svg"
   inkscape:version="1.3 (0e150ed, 2023-07-21)"
   xmlns:inkscape="http://www.inkscape.org/namespaces/inkscape"
   xmlns:sodipodi="http://sodipodi.sourceforge.net/DTD/sodipodi-0.dtd"
   xmlns="http://www.w3.org/2000/svg"
   xmlns:svg="http://www.w3.org/2000/svg">
  <defs
     id="defs1" />
  <sodipodi:namedview
     id="namedview1"
     pagecolor="#ffffff"
     bordercolor="#000000"
     borderopacity="0.25"
     inkscape:showpageshadow="2"
     inkscape:pageopacity="0.0"
     inkscape:pagecheckerboard="0"
     inkscape:deskcolor="#d1d1d1"
     inkscape:zoom="12.421053"
     inkscape:cx="13.444915"
     inkscape:cy="9.5"
     inkscape:window-width="1800"
     inkscape:window-height="1097"
     inkscape:window-x="0"
     inkscape:window-y="44"
     inkscape:window-maximized="1"
     inkscape:current-layer="svg1" />
  <path
     d="m 8.8258,22.655987 c 0.1729,0.206492 0.4248,0.330987 0.6942,0.343022 0.2695,0.01222 0.5318,-0.08914 0.7226,-0.27927 0.1906,-0.190128 0.2925,-0.451345 0.2802,-0.719889 -0.0122,-0.26874 -0.1372,-0.51981 -0.3444,-0.69187 L 3.2771,14.4225 h 22.810741 c 0.331555,-0.01767 0.630666,-0.20404 0.791436,-0.49347 0.160964,-0.28923 0.160964,-0.64074 0,-0.93013 -0.160775,-0.2894 -0.459871,-0.4758 -0.791436,-0.4933 H 3.2771 l 6.912,-6.8778 C 10.3631,5.4462 10.46,5.2049 10.46,4.9538 10.46,4.7028 10.3631,4.4613 10.1891,4.2798 10.0098,4.1006 9.7666,4 9.5127,4 9.2589,4 9.0155,4.1006 8.8364,4.2798 l -8.54860001,8.5195 v -2e-4 C 0.10399999,12.9755 0,13.21886 0,13.47312 c 0,0.25445 0.10399999,0.4978 0.28779999,0.67401 z"
     fill="#000000"
     id="path1" />
</svg>
