<?xml version="1.0" encoding="UTF-8" standalone="no"?>
<svg
   width="27"
   height="27"
   viewBox="0 0 27 27"
   fill="none"
   version="1.1"
   id="svg1"
   sodipodi:docname="arrow-right.svg"
   inkscape:version="1.3 (0e150ed, 2023-07-21)"
   xmlns:inkscape="http://www.inkscape.org/namespaces/inkscape"
   xmlns:sodipodi="http://sodipodi.sourceforge.net/DTD/sodipodi-0.dtd"
   xmlns="http://www.w3.org/2000/svg"
   xmlns:svg="http://www.w3.org/2000/svg">
  <defs
     id="defs1" />
  <sodipodi:namedview
     id="namedview1"
     pagecolor="#ffffff"
     bordercolor="#000000"
     borderopacity="0.25"
     inkscape:showpageshadow="2"
     inkscape:pageopacity="0.0"
     inkscape:pagecheckerboard="0"
     inkscape:deskcolor="#d1d1d1"
     inkscape:zoom="12.421053"
     inkscape:cx="13.444915"
     inkscape:cy="9.5"
     inkscape:window-width="1800"
     inkscape:window-height="1097"
     inkscape:window-x="0"
     inkscape:window-y="44"
     inkscape:window-maximized="1"
     inkscape:current-layer="svg1" />
  <path
     d="M 18.1742,4.344013 C 18.0013,4.137521 17.7494,4.0130264 17.48,4.0009905 17.2105,3.9887664 16.9482,4.0901328 16.7574,4.280261 16.5668,4.470389 16.4649,4.731606 16.4772,5.00015 c 0.0122,0.26874 0.1372,0.51981 0.3444,0.69187 l 6.9013,6.88548 H 0.91215896 c -0.331555,0.01767 -0.630666,0.20404 -0.791436,0.49347 -0.1609639,0.28923 -0.1609639,0.64074 0,0.93013 0.160775,0.2894 0.459871,0.4758 0.791436,0.4933 H 23.7229 l -6.912,6.8778 c -0.174,0.1816 -0.2709,0.4229 -0.2709,0.674 0,0.251 0.0969,0.4925 0.2709,0.674 0.1793,0.1792 0.4225,0.2798 0.6764,0.2798 0.2538,0 0.4972,-0.1006 0.6763,-0.2798 l 8.5486,-8.5195 v 2e-4 C 26.896,14.0245 27,13.78114 27,13.52688 c 0,-0.25445 -0.104,-0.4978 -0.2878,-0.67401 z"
     fill="#000000"
     id="path1" />
</svg>
