<?xml version="1.0" encoding="UTF-8" standalone="no"?>
<svg
   width="27"
   height="27"
   viewBox="0 0 27 27"
   fill="none"
   version="1.1"
   id="svg1"
   sodipodi:docname="arrow-right.svg"
   inkscape:version="1.3 (0e150ed, 2023-07-21)"
   xmlns:inkscape="http://www.inkscape.org/namespaces/inkscape"
   xmlns:sodipodi="http://sodipodi.sourceforge.net/DTD/sodipodi-0.dtd"
   xmlns="http://www.w3.org/2000/svg"
   xmlns:svg="http://www.w3.org/2000/svg">
  <defs
     id="defs1" />
  <sodipodi:namedview
     id="namedview1"
     pagecolor="#ffffff"
     bordercolor="#000000"
     borderopacity="0.25"
     inkscape:showpageshadow="2"
     inkscape:pageopacity="0.0"
     inkscape:pagecheckerboard="0"
     inkscape:deskcolor="#d1d1d1"
     inkscape:zoom="12.421053"
     inkscape:cx="13.444915"
     inkscape:cy="9.5"
     inkscape:window-width="1800"
     inkscape:window-height="1097"
     inkscape:window-x="0"
     inkscape:window-y="44"
     inkscape:window-maximized="1"
     inkscape:current-layer="svg1" />
  <path
     d="m 22.655988,18.174199 c 0.206492,-0.1729 0.330987,-0.4248 0.343022,-0.6942 0.01222,-0.2695 -0.08914,-0.5318 -0.27927,-0.7226 -0.190128,-0.1906 -0.451345,-0.2925 -0.719889,-0.2802 -0.26874,0.0122 -0.51981,0.1372 -0.69187,0.3444 l -6.88548,6.9013 V 0.91215848 c -0.01767,-0.331555 -0.20404,-0.630666 -0.49347,-0.791436 -0.28923,-0.160964 -0.64074,-0.160964 -0.93013,0 -0.2894,0.160775 -0.4758,0.459871 -0.4933,0.791436 V 23.722899 l -6.8778005,-6.912 c -0.1816,-0.174 -0.4229,-0.2709 -0.674,-0.2709 -0.251,0 -0.4925,0.0969 -0.674,0.2709 -0.1792,0.1793 -0.2798,0.4225 -0.2798,0.6764 0,0.2538 0.1006,0.4972 0.2798,0.6763 l 8.5195005,8.5486 h -2e-4 c 0.1764,0.1838 0.41976,0.2878 0.67402,0.2878 0.25445,0 0.4978,-0.104 0.67401,-0.2878 z"
     fill="#000000"
     id="path1" />
</svg>
