<?xml version="1.0" encoding="UTF-8" standalone="no"?>
<svg
   width="27"
   height="27"
   viewBox="0 0 27 27"
   fill="none"
   version="1.1"
   id="svg1"
   sodipodi:docname="arrow-right.svg"
   inkscape:version="1.3 (0e150ed, 2023-07-21)"
   xmlns:inkscape="http://www.inkscape.org/namespaces/inkscape"
   xmlns:sodipodi="http://sodipodi.sourceforge.net/DTD/sodipodi-0.dtd"
   xmlns="http://www.w3.org/2000/svg"
   xmlns:svg="http://www.w3.org/2000/svg">
  <defs
     id="defs1" />
  <sodipodi:namedview
     id="namedview1"
     pagecolor="#ffffff"
     bordercolor="#000000"
     borderopacity="0.25"
     inkscape:showpageshadow="2"
     inkscape:pageopacity="0.0"
     inkscape:pagecheckerboard="0"
     inkscape:deskcolor="#d1d1d1"
     inkscape:zoom="12.421053"
     inkscape:cx="13.444915"
     inkscape:cy="9.5"
     inkscape:window-width="1800"
     inkscape:window-height="1097"
     inkscape:window-x="0"
     inkscape:window-y="44"
     inkscape:window-maximized="1"
     inkscape:current-layer="svg1" />
  <path
     d="M 4.344013,8.8258 C 4.137521,8.9987 4.0130264,9.2506 4.0009905,9.52 c -0.012224,0.2695 0.089142,0.5318 0.2792705,0.7226 0.190128,0.1906 0.451345,0.2925 0.719889,0.2802 0.26874,-0.0122 0.51981,-0.1372 0.69187,-0.3444 L 12.5775,3.2771 v 22.810741 c 0.01767,0.331555 0.20404,0.630666 0.49347,0.791436 0.28923,0.160964 0.64074,0.160964 0.93013,0 0.2894,-0.160775 0.4758,-0.459871 0.4933,-0.791436 V 3.2771 l 6.8778,6.912 c 0.1816,0.174 0.4229,0.2709 0.674,0.2709 0.251,0 0.4925,-0.0969 0.674,-0.2709 C 22.8994,10.0098 23,9.7666 23,9.5127 23,9.2589 22.8994,9.0155 22.7202,8.8364 L 14.2007,0.2878 h 2e-4 C 14.0245,0.104 13.78114,0 13.52688,0 13.27243,0 13.02908,0.104 12.85287,0.2878 Z"
     fill="#000000"
     id="path1" />
</svg>
