<svg width="59" height="59" viewBox="0 0 59 59" fill="none" xmlns="http://www.w3.org/2000/svg">
<path d="M24.8906 53.4688H34.1094C34.3539 53.4688 34.5884 53.3716 34.7612 53.1987C34.9341 53.0259 35.0312 52.7914 35.0312 52.5469C35.0312 52.3024 34.9341 52.0679 34.7612 51.895C34.5884 51.7221 34.3539 51.625 34.1094 51.625H24.8906C24.6461 51.625 24.4116 51.7221 24.2388 51.895C24.0659 52.0679 23.9688 52.3024 23.9688 52.5469C23.9688 52.7914 24.0659 53.0259 24.2388 53.1987C24.4116 53.3716 24.6461 53.4688 24.8906 53.4688Z" fill="#000000"/>
<path d="M54.3906 0H4.60938C4.00406 0 3.40468 0.119225 2.84544 0.350868C2.28621 0.582511 1.77807 0.922035 1.35005 1.35005C0.485629 2.21448 0 3.38689 0 4.60938V41.4844C0 42.7069 0.485629 43.8793 1.35005 44.7437C1.77807 45.1717 2.28621 45.5112 2.84544 45.7429C3.40468 45.9745 4.00406 46.0938 4.60938 46.0938H20.7975L18.7233 51.625H18.4375C17.4595 51.625 16.5216 52.0135 15.83 52.705C15.1385 53.3966 14.75 54.3345 14.75 55.3125C14.75 56.2905 15.1385 57.2284 15.83 57.92C16.5216 58.6115 17.4595 59 18.4375 59H40.5625C41.5405 59 42.4784 58.6115 43.17 57.92C43.8615 57.2284 44.25 56.2905 44.25 55.3125C44.25 54.3345 43.8615 53.3966 43.17 52.705C42.4784 52.0135 41.5405 51.625 40.5625 51.625H40.2767L38.2025 46.0938H54.3906C55.6131 46.0938 56.7855 45.6081 57.6499 44.7437C58.5144 43.8793 59 42.7069 59 41.4844V4.60938C59 4.00406 58.8808 3.40468 58.6491 2.84544C58.4175 2.28621 58.078 1.77807 57.6499 1.35005C57.2219 0.922035 56.7138 0.582511 56.1546 0.350868C55.5953 0.119225 54.9959 0 54.3906 0ZM4.60938 1.84375H54.3906C55.1241 1.84375 55.8276 2.13513 56.3462 2.65378C56.8649 3.17244 57.1562 3.87589 57.1562 4.60938V38.7188H1.84375V4.60938C1.84375 3.87589 2.13513 3.17244 2.65378 2.65378C3.17244 2.13513 3.87589 1.84375 4.60938 1.84375ZM38.7741 52.8695C38.84 53.046 38.9584 53.198 39.1133 53.3051C39.2682 53.4123 39.4523 53.4694 39.6406 53.4688H40.5625C41.0515 53.4688 41.5205 53.663 41.8662 54.0088C42.212 54.3545 42.4062 54.8235 42.4062 55.3125C42.4062 55.8015 42.212 56.2705 41.8662 56.6162C41.5205 56.962 41.0515 57.1562 40.5625 57.1562H18.4375C17.9485 57.1562 17.4795 56.962 17.1338 56.6162C16.788 56.2705 16.5938 55.8015 16.5938 55.3125C16.5938 54.8235 16.788 54.3545 17.1338 54.0088C17.4795 53.663 17.9485 53.4688 18.4375 53.4688H19.3594C19.5477 53.4694 19.7318 53.4123 19.8867 53.3051C20.0416 53.198 20.16 53.046 20.2259 52.8695L22.7611 46.0938H36.2389L38.7741 52.8695ZM54.3906 44.25H4.60938C3.87589 44.25 3.17244 43.9586 2.65378 43.44C2.13513 42.9213 1.84375 42.2179 1.84375 41.4844V40.5625H57.1562V41.4844C57.1562 42.2179 56.8649 42.9213 56.3462 43.44C55.8276 43.9586 55.1241 44.25 54.3906 44.25Z" fill="#000000"/>
<path d="M7.375 35.0312C7.6195 35.0312 7.85398 34.9341 8.02686 34.7612C8.19975 34.5884 8.29688 34.3539 8.29688 34.1094V9.21875C8.29688 8.97425 8.394 8.73977 8.56689 8.56689C8.73977 8.394 8.97425 8.29688 9.21875 8.29688H42.0006L49.5416 16.5938H43.3281C43.0836 16.5938 42.8491 16.4966 42.6763 16.3237C42.5034 16.1509 42.4062 15.9164 42.4062 15.6719V13.8281C42.4062 13.5836 42.3091 13.3491 42.1362 13.1763C41.9634 13.0034 41.7289 12.9062 41.4844 12.9062C41.2399 12.9062 41.0054 13.0034 40.8325 13.1763C40.6596 13.3491 40.5625 13.5836 40.5625 13.8281V15.6719C40.5625 16.4054 40.8539 17.1088 41.3725 17.6275C41.8912 18.1461 42.5946 18.4375 43.3281 18.4375H50.7031V34.1094C50.7031 34.3539 50.8003 34.5884 50.9731 34.7612C51.146 34.9341 51.3805 35.0312 51.625 35.0312C51.8695 35.0312 52.104 34.9341 52.2769 34.7612C52.4497 34.5884 52.5469 34.3539 52.5469 34.1094V17.1561L42.8119 6.45312H9.21875C8.48526 6.45312 7.78181 6.7445 7.26316 7.26316C6.7445 7.78181 6.45312 8.48526 6.45312 9.21875V34.1094C6.45312 34.3539 6.55025 34.5884 6.72314 34.7612C6.89602 34.9341 7.1305 35.0312 7.375 35.0312Z" fill="#000000"/>
<path d="M35.9534 14.75H32.1368C31.9124 13.881 31.3788 13.1236 30.636 12.6199C29.8932 12.1162 28.9921 11.9007 28.1018 12.0138C27.2114 12.1269 26.3929 12.5608 25.7995 13.2342C25.2062 13.9077 24.8789 14.7744 24.8789 15.6719C24.8789 16.5694 25.2062 17.4361 25.7995 18.1095C26.3929 18.783 27.2114 19.2169 28.1018 19.33C28.9921 19.4431 29.8932 19.2276 30.636 18.7238C31.3788 18.2201 31.9124 17.4628 32.1368 16.5938H35.9534C36.1979 16.5938 36.4324 16.4966 36.6052 16.3237C36.7781 16.1509 36.8752 15.9164 36.8752 15.6719C36.8752 15.4274 36.7781 15.1929 36.6052 15.02C36.4324 14.8471 36.1979 14.75 35.9534 14.75ZM28.5784 17.5156C28.2137 17.5156 27.8572 17.4075 27.554 17.2049C27.2508 17.0023 27.0145 16.7144 26.875 16.3775C26.7354 16.0406 26.6989 15.6698 26.7701 15.3122C26.8412 14.9545 27.0168 14.626 27.2746 14.3682C27.5325 14.1103 27.861 13.9347 28.2187 13.8636C28.5763 13.7924 28.947 13.8289 29.2839 13.9685C29.6208 14.108 29.9088 14.3443 30.1114 14.6476C30.314 14.9508 30.4221 15.3072 30.4221 15.6719C30.4221 16.1609 30.2279 16.6298 29.8821 16.9756C29.5363 17.3214 29.0674 17.5156 28.5784 17.5156Z" fill="#000000"/>
<path d="M12.9062 16.5938H21.2031C21.4476 16.5938 21.6821 16.4966 21.855 16.3237C22.0279 16.1509 22.125 15.9164 22.125 15.6719C22.125 15.4274 22.0279 15.1929 21.855 15.02C21.6821 14.8471 21.4476 14.75 21.2031 14.75H12.9062C12.6618 14.75 12.4273 14.8471 12.2544 15.02C12.0815 15.1929 11.9844 15.4274 11.9844 15.6719C11.9844 15.9164 12.0815 16.1509 12.2544 16.3237C12.4273 16.4966 12.6618 16.5938 12.9062 16.5938Z" fill="#000000"/>
<path d="M20.2812 22.125C19.4658 22.1277 18.6742 22.4005 18.0304 22.901C17.3865 23.4014 16.9267 24.1011 16.7228 24.8906H12.9062C12.6618 24.8906 12.4273 24.9878 12.2544 25.1607C12.0815 25.3335 11.9844 25.568 11.9844 25.8125C11.9844 26.057 12.0815 26.2915 12.2544 26.4644C12.4273 26.6373 12.6618 26.7344 12.9062 26.7344H16.7228C16.8954 27.4027 17.252 28.0091 17.7522 28.4847C18.2523 28.9603 18.8759 29.286 19.552 29.4247C20.2282 29.5635 20.9296 29.5097 21.5767 29.2694C22.2237 29.0292 22.7903 28.6122 23.2121 28.0659C23.6339 27.5196 23.8938 26.8658 23.9625 26.179C24.0311 25.4923 23.9055 24.8 23.6002 24.181C23.2948 23.5621 22.8219 23.0412 22.2351 22.6778C21.6484 22.3143 20.9714 22.1228 20.2812 22.125ZM20.2812 27.6563C19.9166 27.6563 19.5601 27.5481 19.2569 27.3455C18.9537 27.1429 18.7174 26.855 18.5778 26.5181C18.4383 26.1812 18.4018 25.8105 18.4729 25.4528C18.5441 25.0952 18.7197 24.7666 18.9775 24.5088C19.2354 24.2509 19.5639 24.0753 19.9216 24.0042C20.2792 23.9331 20.6499 23.9696 20.9868 24.1091C21.3237 24.2487 21.6117 24.485 21.8143 24.7882C22.0169 25.0914 22.125 25.4479 22.125 25.8125C22.125 26.3015 21.9307 26.7705 21.585 27.1162C21.2392 27.462 20.7702 27.6563 20.2812 27.6563Z" fill="#000000"/>
<path d="M35.9531 24.8906H27.6562C27.4118 24.8906 27.1773 24.9878 27.0044 25.1606C26.8315 25.3335 26.7344 25.568 26.7344 25.8125C26.7344 26.057 26.8315 26.2915 27.0044 26.4644C27.1773 26.6372 27.4118 26.7344 27.6562 26.7344H35.9531C36.1976 26.7344 36.4321 26.6372 36.605 26.4644C36.7779 26.2915 36.875 26.057 36.875 25.8125C36.875 25.568 36.7779 25.3335 36.605 25.1606C36.4321 24.9878 36.1976 24.8906 35.9531 24.8906Z" fill="#000000"/>
</svg>
