<?xml version="1.0" encoding="UTF-8" standalone="no"?>
<svg
   width="70"
   height="70"
   viewBox="0 0 70 70"
   fill="none"
   version="1.1"
   id="svg7"
   sodipodi:docname="envelop-send.svg"
   inkscape:version="1.3 (0e150ed, 2023-07-21)"
   xmlns:inkscape="http://www.inkscape.org/namespaces/inkscape"
   xmlns:sodipodi="http://sodipodi.sourceforge.net/DTD/sodipodi-0.dtd"
   xmlns="http://www.w3.org/2000/svg"
   xmlns:svg="http://www.w3.org/2000/svg">
  <defs
     id="defs7" />
  <sodipodi:namedview
     id="namedview7"
     pagecolor="#ffffff"
     bordercolor="#000000"
     borderopacity="0.25"
     inkscape:showpageshadow="2"
     inkscape:pageopacity="0.0"
     inkscape:pagecheckerboard="0"
     inkscape:deskcolor="#d1d1d1"
     inkscape:zoom="6.7428571"
     inkscape:cx="36.038136"
     inkscape:cy="31.440678"
     inkscape:window-width="1312"
     inkscape:window-height="449"
     inkscape:window-x="0"
     inkscape:window-y="44"
     inkscape:window-maximized="0"
     inkscape:current-layer="svg7" />
  <g
     id="g7"
     transform="matrix(1.0020503,0,0,1,-0.45405522,17.405438)">
    <path
       d="m 44.1155,22.975 c -1.7317,0.0153 -3.4071,-0.613 -4.7014,-1.7639 L 20.139,3.74076 C 19.5429,3.21016 19.3375,2.36574 19.6236,1.62062 19.9098,0.875513 20.6273,0.385578 21.4254,0.390664 h 45.3723 c 0.7953,5.65e-4 1.5083,0.48995 1.795,1.231656 0.2862,0.7417 0.0875,1.58331 -0.5001,2.1184 L 48.8088,21.211 c -1.2921,1.1487 -2.9646,1.7776 -4.6935,1.764 z M 21.4258,2.21872 40.6691,19.835 c 0.9619,0.819 2.1839,1.2689 3.4471,1.2689 1.2633,0 2.4853,-0.4499 3.4471,-1.2689 L 66.8472,2.356 51.4071,2.21883 Z"
       fill="#000000"
       id="path1" />
    <path
       d="M 19.4609,31.9484 34.9328,16.4766 36.2491,17.7929 20.7773,33.2647 Z"
       fill="#000000"
       id="path2" />
    <path
       d="M 51.6875,17.4882 53.0038,16.1719 69.191,32.359 67.8746,33.6753 Z"
       fill="#000000"
       id="path3" />
    <path
       d="M 67.518,34.7985 H 20.7138 c -0.7406,0 -1.4507,-0.2941 -1.9745,-0.8173 C 18.216,33.4574 17.922,32.7473 17.922,32.0067 v -3.9489 h -4.1432 c -0.5142,0 -0.9308,-0.4166 -0.9308,-0.9303 0,-0.5142 0.4166,-0.9308 0.9308,-0.9308 h 5.0739 -6e-4 c 0.512,0.0045 0.9263,0.4189 0.9308,0.9308 v 4.8556 -6e-4 c -0.018,0.2574 0.0723,0.5103 0.249,0.6977 0.1766,0.1874 0.4239,0.293 0.6818,0.2896 H 67.518 c 0.5137,0 0.9308,-0.4166 0.9308,-0.9303 V 3.18245 C 68.4573,2.92957 68.363,2.6846 68.1875,2.5034 68.0125,2.32165 67.7703,2.21891 67.518,2.21949 H 20.7137 C 20.466,2.21723 20.2277,2.31432 20.0528,2.4893 19.8778,2.66428 19.7807,2.90249 19.7829,3.14972 v 5.30872 c 0,0.51366 -0.4165,0.93023 -0.9307,0.93023 H 5.30623 C 5.04545,9.41351 4.78635,9.32658 4.59275,9.15048 4.39915,8.97379 4.28906,8.72431 4.28906,8.4624 4.28906,8.20049 4.39913,7.95043 4.59275,7.77432 4.78635,7.5982 5.04545,7.51129 5.30623,7.53556 H 17.922 V 3.18243 c 0,-0.74057 0.2941,-1.45065 0.8173,-1.97447 0.5238,-0.52326 1.2339,-0.817335 1.9745,-0.817335 h 46.8043 c 0.7405,0 1.4506,0.294089 1.9739,0.817335 0.5238,0.52382 0.8179,1.23392 0.8179,1.97447 V 32.0063 c 0,0.7406 -0.2941,1.4506 -0.8179,1.9745 -0.5233,0.5232 -1.2334,0.8173 -1.9739,0.8173 z"
       fill="#000000"
       id="path4" />
    <path
       d="m 22.9173,13.7438 h -9.7918 c -0.5136,0 -0.9302,-0.4165 -0.9302,-0.9308 0,-0.5136 0.4166,-0.9302 0.9302,-0.9302 h 9.7918 c 0.5137,0 0.9308,0.4166 0.9308,0.9302 0,0.5143 -0.4171,0.9308 -0.9308,0.9308 z"
       fill="#000000"
       id="path5" />
    <path
       d="M 14.6793,18.0642 H 1.38392 c -0.514224,0 -0.930795,-0.4166 -0.930795,-0.9303 0,-0.5142 0.416571,-0.9308 0.930795,-0.9308 H 14.6793 c 0.5136,0 0.9302,0.4166 0.9302,0.9308 0,0.5137 -0.4166,0.9303 -0.9302,0.9303 z"
       fill="#000000"
       id="path6" />
    <path
       d="m 18.5833,22.5257 h -7.364 c -0.5137,0 -0.9302,-0.4166 -0.9302,-0.9308 0,-0.5143 0.4165,-0.9308 0.9302,-0.9308 h 7.364 c 0.5142,0 0.9308,0.4165 0.9308,0.9308 0,0.5142 -0.4166,0.9308 -0.9308,0.9308 z"
       fill="#000000"
       id="path7" />
  </g>
</svg>
