<?xml version="1.0" encoding="UTF-8" standalone="no"?>
<svg
   width="30"
   height="30"
   viewBox="0 0 30 30"
   fill="none"
   version="1.1"
   id="svg1"
   sodipodi:docname="envelop.svg"
   inkscape:version="1.3 (0e150ed, 2023-07-21)"
   xmlns:inkscape="http://www.inkscape.org/namespaces/inkscape"
   xmlns:sodipodi="http://sodipodi.sourceforge.net/DTD/sodipodi-0.dtd"
   xmlns="http://www.w3.org/2000/svg"
   xmlns:svg="http://www.w3.org/2000/svg">
  <defs
     id="defs1" />
  <sodipodi:namedview
     id="namedview1"
     pagecolor="#ffffff"
     bordercolor="#000000"
     borderopacity="0.25"
     inkscape:showpageshadow="2"
     inkscape:pageopacity="0.0"
     inkscape:pagecheckerboard="0"
     inkscape:deskcolor="#d1d1d1"
     inkscape:zoom="13.111111"
     inkscape:cx="14.491525"
     inkscape:cy="9"
     inkscape:window-width="1800"
     inkscape:window-height="1097"
     inkscape:window-x="0"
     inkscape:window-y="44"
     inkscape:window-maximized="1"
     inkscape:current-layer="svg1" />
  <path
     d="m 29.842094,5.3238601 c -0.0085,-0.012982 -0.01515,-0.026666 -0.02493,-0.038947 -0.005,-0.00667 -0.0121,-0.011228 -0.01746,-0.017896 -0.02126,-0.024834 -0.04377,-0.048265 -0.06754,-0.070175 -0.01546,-0.014386 -0.02998,-0.029474 -0.04608,-0.042105 -0.02725,-0.020751 -0.05576,-0.039393 -0.08532,-0.05579 -0.01546,-0.00912 -0.02967,-0.02 -0.04576,-0.027719 -0.03503,-0.016575 -0.07133,-0.029952 -0.108357,-0.039999 -0.01262,-0.00386 -0.0243,-0.00982 -0.03693,-0.012983 -0.05134,-0.012085 -0.103727,-0.0182 -0.156327,-0.018246 H 0.74620909 c -0.0522459,2.136e-4 -0.10432446,0.00656 -0.15536788,0.018948 -0.0145261,0.00316 -0.0277898,0.010175 -0.042316,0.014386 -0.0349919,0.01 -0.0692905,0.022779 -0.10263072,0.038246 -0.0176843,0.00877 -0.0341061,0.020702 -0.0511581,0.030877 -0.0272765,0.0157 -0.053644,0.033278 -0.0789479,0.052632 -0.0172372,0.014224 -0.0337863,0.029451 -0.049578,0.045614 -0.0223015,0.020715 -0.0433964,0.042982 -0.0631583,0.066666 -0.006,0.00702 -0.0132627,0.012282 -0.018631,0.019299 -0.005368,0.00702 -0.0161052,0.025966 -0.0243161,0.038597 C 0.05757891,5.4687652 0.00121824,5.6462594 0,5.8294753 V 24.170198 c 8.3500906e-5,0.219987 0.07870849,0.430857 0.21861352,0.586437 C 0.35851898,24.912216 0.54826962,24.999767 0.74620909,25 H 29.25339 c 0.197988,-1.16e-4 0.387875,-0.08767 0.527792,-0.243248 C 29.921204,24.601171 29.999894,24.390185 30,24.170198 V 5.8294753 C 29.999684,5.6460688 29.944033,5.4680616 29.842094,5.3238601 Z M 28.19991,6.0421065 14.999947,17.223535 1.7999958,6.0421065 Z M 29.061714,23.957575 H 0.93757771 V 6.6221047 L 14.7158,18.292612 c 0.08164,0.0692 0.181471,0.106721 0.284147,0.106721 0.102781,0 0.202617,-0.03752 0.284253,-0.106721 L 29.062345,6.621754 Z"
     fill="#000000"
     id="path1"
     style="stroke-width:1.10892" />
</svg>
