<?xml version="1.0" encoding="UTF-8" standalone="no"?>
<svg
   width="62"
   height="62"
   viewBox="0 0 62 62"
   fill="none"
   version="1.1"
   id="svg11"
   sodipodi:docname="mobile-apps.svg"
   inkscape:version="1.3 (0e150ed, 2023-07-21)"
   xmlns:inkscape="http://www.inkscape.org/namespaces/inkscape"
   xmlns:sodipodi="http://sodipodi.sourceforge.net/DTD/sodipodi-0.dtd"
   xmlns="http://www.w3.org/2000/svg"
   xmlns:svg="http://www.w3.org/2000/svg">
  <defs
     id="defs11" />
  <sodipodi:namedview
     id="namedview11"
     pagecolor="#ffffff"
     bordercolor="#000000"
     borderopacity="0.25"
     inkscape:showpageshadow="2"
     inkscape:pageopacity="0.0"
     inkscape:pagecheckerboard="0"
     inkscape:deskcolor="#d1d1d1"
     inkscape:zoom="3.8064516"
     inkscape:cx="28.898305"
     inkscape:cy="31"
     inkscape:window-width="1800"
     inkscape:window-height="1097"
     inkscape:window-x="0"
     inkscape:window-y="44"
     inkscape:window-maximized="1"
     inkscape:current-layer="svg11" />
  <g
     id="g11"
     transform="translate(2.4643,2e-4)">
    <path
       d="m 31.0821,45.9375 h -3.325 c -0.458,0 -0.8313,0.3734 -0.8313,0.8313 0,0.4579 0.3733,0.8312 0.8313,0.8312 h 3.325 c 0.4579,0 0.8313,-0.3733 0.8313,-0.8312 0,-0.4579 -0.3734,-0.8313 -0.8313,-0.8313 z"
       fill="#000000"
       id="path1" />
    <path
       d="m 25.3813,28.4142 -2.7333,-2.7404 2.684,-2.684 c 0.324,-0.324 0.324,-0.8524 0,-1.1764 -0.3241,-0.3241 -0.8524,-0.3241 -1.1765,0 l -3.2757,3.2757 c -0.3241,0.3241 -0.3241,0.8524 0,1.1765 l 3.325,3.3251 c 0.1621,0.162 0.3734,0.2465 0.5847,0.2465 0.2114,0 0.4227,-0.0845 0.5848,-0.2465 0.324,-0.3241 0.324,-0.8524 0,-1.1765 z"
       fill="#000000"
       id="path2" />
    <path
       d="m 36.4209,25.7224 -2.684,2.684 c -0.3241,0.324 -0.3241,0.8524 0,1.1764 0.162,0.1621 0.3734,0.2466 0.5847,0.2466 0.2113,0 0.4227,-0.0845 0.5847,-0.2466 l 3.2758,-3.2757 c 0.324,-0.3241 0.324,-0.8524 0,-1.1765 L 34.857,21.8055 c -0.3241,-0.324 -0.8524,-0.324 -1.1765,0 -0.324,0.3241 -0.324,0.8524 0,1.1765 l 2.7334,2.7404 z"
       fill="#000000"
       id="path3" />
    <path
       d="m 27.185,29.7388 c 0.1198,0.0634 0.2466,0.0916 0.3734,0.0916 0.3029,0 0.5988,-0.1691 0.7397,-0.4579 l 3.3251,-6.6009 c 0.2043,-0.4086 0.0422,-0.9087 -0.3664,-1.113 -0.4085,-0.2043 -0.9087,-0.0423 -1.113,0.3663 l -3.3251,6.6008 c -0.2043,0.4086 -0.0423,0.9088 0.3663,1.1131 z"
       fill="#000000"
       id="path4" />
    <path
       d="M 4.40291,46.0862 5.96683,43.381 c 0.14793,-0.2536 0.14793,-0.5706 0,-0.8242 C 5.66391,42.0144 5.42439,41.4367 5.25532,40.8308 5.17782,40.5491 4.9524,40.3307 4.67061,40.2532 L 1.6555,39.4431 V 37.9778 L 4.67061,37.1676 C 4.9524,37.0901 5.17782,36.8717 5.25532,36.59 c 0.16907,-0.5988 0.40859,-1.1835 0.71151,-1.726 0.14089,-0.2536 0.14089,-0.5706 0,-0.8242 L 4.40291,31.3346 5.43848,30.2991 8.14363,31.863 c 0.2536,0.1479 0.57061,0.1479 0.82422,0 0.54244,-0.3029 1.12015,-0.5424 1.72595,-0.7115 0.2818,-0.0775 0.5002,-0.3029 0.5777,-0.5847 l 0.8101,-3.0151 h 1.4653 l 0.8101,3.0151 c 0.0775,0.2818 0.2959,0.5072 0.5777,0.5847 0.5988,0.1691 1.1835,0.4086 1.7259,0.7115 0.2536,0.1409 0.5706,0.1409 0.8242,0 l 2.7052,-1.5639 1.0356,1.0355 -1.564,2.7052 c -0.1479,0.2536 -0.1479,0.5706 0,0.8242 0.303,0.5425 0.5425,1.1201 0.7116,1.726 0.0774,0.2817 0.3029,0.5001 0.5847,0.5776 l 3.0151,0.8102 v 1.4653 l -3.0151,0.8101 c -0.2818,0.0775 -0.5073,0.2959 -0.5847,0.5776 -0.1339,0.4861 -0.3171,0.9511 -0.5425,1.4019 -0.0211,0.0282 -0.0352,0.0634 -0.0493,0.0987 -0.0423,0.0775 -0.0775,0.1479 -0.1198,0.2254 -0.1408,0.2536 -0.1408,0.5706 0,0.8242 l 1.564,2.7052 -1.0356,1.0355 -2.7052,-1.5639 c -0.2536,-0.1479 -0.5706,-0.1479 -0.8242,0 -0.5424,0.3029 -1.1201,0.5495 -1.7259,0.7115 -0.2818,0.0775 -0.5002,0.3029 -0.5777,0.5847 l -0.8101,3.0151 H 12.0816 L 11.2715,46.854 C 11.194,46.5722 10.9756,46.3468 10.6938,46.2693 10.095,46.1003 9.51029,45.8607 8.96785,45.5578 c -0.25361,-0.1409 -0.57062,-0.1409 -0.82422,0 L 5.43848,47.1217 Z M 19.0276,1.66254 h 19.866 c 1.9372,0 3.5153,1.578 3.5153,3.51529 V 6.51631 H 15.5123 V 5.17783 c 0,-1.93729 1.578,-3.51529 3.5153,-3.51529 z m 5.9809,34.87806 -3.1912,-0.8524 c -0.1409,-0.4156 -0.3029,-0.8171 -0.5002,-1.2046 l 1.6485,-2.8601 c 0.1902,-0.3241 0.1338,-0.7397 -0.1339,-1.0004 L 20.8945,28.6859 C 20.6268,28.4182 20.2182,28.3688 19.8941,28.552 l -2.8601,1.6485 c -0.3875,-0.1973 -0.789,-0.3593 -1.2046,-0.5002 l -0.3452,-1.2892 c 0.0141,-0.0563 0.0211,-0.1197 0.0211,-0.1761 V 8.17885 H 42.4018 V 41.8241 H 21.7821 c 0,0 0.0211,-0.0493 0.0282,-0.0774 l 3.1912,-0.8524 c 0.3663,-0.0987 0.6129,-0.4298 0.6129,-0.8031 v -2.7404 c 0,-0.3734 -0.2536,-0.7045 -0.6129,-0.8031 z m 13.8851,13.3285 h -19.866 c -1.3525,0 -2.6065,-0.789 -3.1842,-2.0147 -0.007,-0.0212 -0.0211,-0.0353 -0.0281,-0.0564 l 0.0211,-0.0704 c 0.4156,-0.1409 0.8172,-0.3029 1.2046,-0.5002 l 2.8602,1.6484 c 0.324,0.1903 0.7397,0.1339 1.0003,-0.1338 l 1.9373,-1.9373 c 0.2677,-0.2677 0.317,-0.6763 0.1338,-1.0003 l -1.3385,-2.3248 h 20.7748 v 2.8672 c 0,1.9373 -1.5781,3.5153 -3.5153,3.5153 z M 5.72026,48.8758 8.5804,47.2274 c 0.38745,0.1973 0.789,0.3593 1.20463,0.5002 l 0.85237,3.1912 c 0.0987,0.3663 0.4298,0.6129 0.8031,0.6129 h 2.7404 c 0.3734,0 0.7045,-0.2536 0.8031,-0.6129 l 0.2747,-1.0215 c 0.9652,1.0215 2.3318,1.6344 3.776,1.6344 h 19.8659 c 2.8531,0 5.1778,-2.3247 5.1778,-5.1778 V 5.17783 C 44.0784,2.32474 41.7537,0 38.9006,0 H 19.0347 C 16.1816,0 13.8568,2.32474 13.8568,5.17783 V 25.8962 h -2.4092 c -0.3734,0 -0.7045,0.2536 -0.8031,0.6129 L 9.79208,29.7003 C 9.37644,29.8412 8.9749,30.0032 8.58744,30.2005 L 5.72731,28.552 C 5.40325,28.3618 4.98762,28.4182 4.72697,28.6859 l -1.93728,1.9372 c -0.2677,0.2677 -0.31701,0.6763 -0.13385,1.0004 l 1.64845,2.8601 C 4.10704,34.8711 3.94501,35.2797 3.80412,35.6882 L 0.612885,36.5406 C 0.246563,36.6393 0,36.9704 0,37.3437 v 2.7404 c 0,0.3734 0.253608,0.7045 0.612885,0.8031 l 3.191235,0.8524 c 0.14089,0.4156 0.30292,0.8172 0.50017,1.2046 l -1.64845,2.8602 c -0.19021,0.324 -0.13385,0.7397 0.13385,1.0003 l 1.93728,1.9373 c 0.26769,0.2677 0.67628,0.317 1.00034,0.1338 z"
       fill="#000000"
       id="path5" />
    <path
       d="m 12.8069,35.9594 c 1.5216,0 2.7615,1.2399 2.7615,2.7615 0,1.5217 -1.2399,2.7615 -2.7615,2.7615 -1.5217,0 -2.7615,-1.2398 -2.7615,-2.7615 0,-1.5216 1.2398,-2.7615 2.7615,-2.7615 z m 0,7.1856 c 2.4374,0 4.424,-1.9866 4.424,-4.4241 0,-2.4374 -1.9866,-4.424 -4.424,-4.424 -2.4375,0 -4.42409,1.9866 -4.42409,4.424 0,2.4375 1.98659,4.4241 4.42409,4.4241 z"
       fill="#000000"
       id="path6" />
    <path
       d="m 5.13672,23.2297 v 3.5012 c 0,0.4579 0.37336,0.8313 0.83127,0.8313 0.4579,0 0.83127,-0.3734 0.83127,-0.8313 v -3.5012 c 0,-0.4579 -0.37337,-0.8313 -0.83127,-0.8313 -0.45791,0 -0.83127,0.3734 -0.83127,0.8313 z"
       fill="#000000"
       id="path7" />
    <path
       d="m 48.0813,8.17817 c 2.2261,0 4.0436,1.81047 4.0436,4.04363 v 16.7733 c 0,0.4579 0.3734,0.8313 0.8313,0.8313 0.4579,0 0.8312,-0.3734 0.8312,-0.8313 V 12.2218 c 0,-3.14896 -2.5572,-5.70618 -5.7061,-5.70618 -0.4579,0 -0.8313,0.37337 -0.8313,0.83128 0,0.4579 0.3734,0.83127 0.8313,0.83127 z"
       fill="#000000"
       id="path8" />
    <path
       d="m 5.33682,20.3584 c 0.16202,0.162 0.37336,0.2465 0.5847,0.2465 0.21134,0 0.42268,-0.0845 0.58471,-0.2465 l 3.28281,-3.2828 c 0.32406,-0.3241 0.32406,-0.8524 0,-1.1765 -0.32405,-0.324 -0.8524,-0.324 -1.17646,0 l -1.82456,1.8246 v -5.5019 c 0,-2.22611 1.81047,-4.04363 4.04368,-4.04363 0.4579,0 0.8312,-0.37337 0.8312,-0.83127 0,-0.45791 -0.3733,-0.83128 -0.8312,-0.83128 -3.14901,0 -5.70622,2.55722 -5.70622,5.70618 v 5.5864 L 3.21637,15.8991 c -0.32405,-0.324 -0.8524,-0.324 -1.17645,0 -0.32406,0.3241 -0.32406,0.8524 0,1.1765 l 3.28281,3.2828 z"
       fill="#000000"
       id="path9" />
    <path
       d="m 28.1657,54.0039 c -0.324,-0.324 -0.8524,-0.324 -1.1764,0 -0.3241,0.3241 -0.3241,0.8524 0,1.1765 l 1.8668,1.8668 H 10.8429 c -2.22612,0 -4.04364,-1.8105 -4.04364,-4.0436 v -1.8598 c 0,-0.4579 -0.37337,-0.8313 -0.83127,-0.8313 -0.45791,0 -0.83127,0.3734 -0.83127,0.8313 v 1.8598 c 0,3.1489 2.55721,5.7061 5.70618,5.7061 h 18.0132 l -1.8668,1.8669 c -0.3241,0.324 -0.3241,0.8524 0,1.1764 0.162,0.1621 0.3733,0.2466 0.5847,0.2466 0.2113,0 0.4226,-0.0845 0.5847,-0.2466 l 3.2828,-3.2828 c 0.155,-0.155 0.2465,-0.3663 0.2465,-0.5847 0,-0.2184 -0.0845,-0.4297 -0.2465,-0.5847 L 28.1587,54.018 Z"
       fill="#000000"
       id="path10" />
    <path
       d="m 56.8284,36.1743 -3.2828,-3.2828 c -0.3241,-0.3241 -0.8524,-0.3241 -1.1765,0 l -3.2828,3.2828 c -0.324,0.324 -0.324,0.8524 0,1.1764 0.162,0.1621 0.3734,0.2466 0.5847,0.2466 0.2114,0 0.4227,-0.0845 0.5847,-0.2466 l 1.8669,-1.8668 v 17.513 c 0,2.2262 -1.8105,4.0437 -4.0437,4.0437 H 36.5891 c -0.4579,0 -0.8313,0.3733 -0.8313,0.8312 0,0.4579 0.3734,0.8313 0.8313,0.8313 h 11.4898 c 3.149,0 5.7062,-2.5572 5.7062,-5.7062 v -17.52 l 1.8668,1.8668 c 0.3241,0.3241 0.8524,0.3241 1.1765,0 0.324,-0.3241 0.324,-0.8524 0,-1.1765 z"
       fill="#000000"
       id="path11" />
  </g>
</svg>
