<?xml version="1.0" encoding="UTF-8" standalone="no"?>
<svg
   width="57"
   height="57"
   viewBox="0 0 57 57"
   fill="none"
   version="1.1"
   id="svg4"
   sodipodi:docname="nft.svg"
   inkscape:version="1.3 (0e150ed, 2023-07-21)"
   xmlns:inkscape="http://www.inkscape.org/namespaces/inkscape"
   xmlns:sodipodi="http://sodipodi.sourceforge.net/DTD/sodipodi-0.dtd"
   xmlns="http://www.w3.org/2000/svg"
   xmlns:svg="http://www.w3.org/2000/svg">
  <defs
     id="defs4" />
  <sodipodi:namedview
     id="namedview4"
     pagecolor="#ffffff"
     bordercolor="#000000"
     borderopacity="0.25"
     inkscape:showpageshadow="2"
     inkscape:pageopacity="0.0"
     inkscape:pagecheckerboard="0"
     inkscape:deskcolor="#d1d1d1"
     inkscape:zoom="4.1403509"
     inkscape:cx="28.5"
     inkscape:cy="28.5"
     inkscape:window-width="1312"
     inkscape:window-height="449"
     inkscape:window-x="0"
     inkscape:window-y="44"
     inkscape:window-maximized="0"
     inkscape:current-layer="svg4" />
  <g
     id="g4">
    <path
       d="M38.9381 48.925C38.67 48.6861 38.3798 48.4734 38.0713 48.2897C37.3079 47.9044 36.6715 47.3077 36.2377 46.5708C35.804 45.8339 35.5913 44.9878 35.625 44.1334C34.6552 43.7174 33.7682 43.1301 33.0066 42.3997L38.9381 48.925ZM38.9381 48.925C39.6355 49.5572 40.4047 50.1052 41.23 50.5578L38.9381 48.925ZM26.4931 24.0766C25.2047 23.4828 23.2156 23.7975 21.66 24.8009C20.8396 25.3095 20.1639 26.0208 19.698 26.8663C19.2321 27.7117 18.9917 28.6629 19 29.6281L26.4931 24.0766ZM26.4931 24.0766H26.5466H26.4931ZM38.2643 44.9523C38.9613 45.0719 39.6676 45.1297 40.375 45.125L38.2643 44.9523ZM38.2643 44.9523C38.258 44.9307 38.252 44.9087 38.2463 44.8862L38.1009 44.9231L38.0735 45.0706C38.0985 45.0752 38.1236 45.0798 38.1486 45.0843C38.3472 45.6666 38.7457 45.9239 39.3442 46.3102L39.3478 46.3125C39.8176 46.5738 40.2542 46.8908 40.6481 47.2566C41.2199 47.7422 41.8384 48.1698 42.4947 48.5331L38.2643 44.9523ZM22.1066 50.6057L22.1057 50.6066C21.7051 51.0104 21.477 51.7334 21.3518 52.4736C21.225 53.2229 21.198 54.0264 21.2252 54.6258L21.2316 54.7691H21.375H45.0656H45.2418L45.2137 54.5951C45.0522 53.5951 44.504 52.8156 43.7858 52.1572C43.0701 51.5013 42.1751 50.9564 41.3079 50.4296L41.308 50.4295L41.3021 50.4263C40.4871 49.9794 39.7275 49.4382 39.0389 48.8139L39.0379 48.813C38.7627 48.5678 38.4647 48.3494 38.148 48.1608L38.1482 48.1605L38.1388 48.1558C37.4012 47.7834 36.7861 47.2068 36.367 46.4947C35.9479 45.7826 35.7423 44.965 35.7749 44.1393L35.7789 44.0363L35.6841 43.9956C34.7332 43.5877 33.8633 43.0122 33.1159 42.2967C32.9489 42.099 32.8618 41.846 32.8718 41.5872C32.8819 41.3261 32.9901 41.0784 33.1749 40.8936C33.3597 40.7089 33.6074 40.6006 33.8685 40.5905C34.1294 40.5805 34.3845 40.6691 34.583 40.8389C36.1876 42.2283 38.2557 42.9639 40.3773 42.9C42.2902 42.8993 44.2962 42.0192 45.0065 40.4364L45.1014 40.225H44.8697H39.1875C38.9123 40.225 38.6484 40.1157 38.4539 39.9211C38.2593 39.7266 38.15 39.4627 38.15 39.1875C38.15 38.9123 38.2593 38.6484 38.4539 38.4539C38.6484 38.2593 38.9123 38.15 39.1875 38.15H44.9647H45.1646L45.1087 37.958C44.8025 36.9071 44.2911 35.9272 43.604 35.0751C42.9169 34.223 42.0678 33.5155 41.1056 32.9935L41.105 32.9931C40.8673 32.8657 40.6887 32.6508 40.6068 32.3939C40.5249 32.137 40.5462 31.8583 40.6663 31.6169C40.7863 31.3755 40.9956 31.1902 41.2499 31.1005C41.5033 31.011 41.7816 31.0234 42.026 31.1349C42.2466 31.2457 42.4613 31.3676 42.6694 31.5002L42.9 31.6472V31.3737V26.7188C42.9 25.2617 42.3212 23.8644 41.2909 22.8341C40.2606 21.8038 38.8633 21.225 37.4062 21.225L33.6716 21.225L33.6714 21.225C32.2606 21.2266 30.908 21.7878 29.9104 22.7854C28.9128 23.783 28.3516 25.1356 28.35 26.5464V26.5466V29.6875C28.35 29.9627 28.2407 30.2266 28.0461 30.4211C27.8516 30.6157 27.5877 30.725 27.3125 30.725C27.0373 30.725 26.7734 30.6157 26.5789 30.4211C26.3843 30.2266 26.275 29.9627 26.275 29.6875V26.5466V26.5459V26.5452V26.5445V26.5438V26.5431V26.5424V26.5417V26.541V26.5403V26.5396V26.5389V26.5382V26.5375V26.5368V26.5361V26.5354V26.5348V26.5341V26.5334V26.5327V26.532V26.5313V26.5306V26.5299V26.5292V26.5285V26.5278V26.5271V26.5264V26.5257V26.5251V26.5244V26.5237V26.523V26.5223V26.5216V26.5209V26.5202V26.5195V26.5188V26.5181V26.5175V26.5168V26.5161V26.5154V26.5147V26.514V26.5133V26.5126V26.5119V26.5112V26.5106V26.5099V26.5092V26.5085V26.5078V26.5071V26.5064V26.5057V26.505V26.5044V26.5037V26.503V26.5023V26.5016V26.5009V26.5002V26.4995V26.4989V26.4982V26.4975V26.4968V26.4961V26.4954V26.4947V26.4941V26.4934V26.4927V26.492V26.4913V26.4906V26.4899V26.4893V26.4886V26.4879V26.4872V26.4865V26.4858V26.4851V26.4845V26.4838V26.4831V26.4824V26.4817V26.481V26.4804V26.4797V26.479V26.4783V26.4776V26.4769V26.4763V26.4756V26.4749V26.4742V26.4735V26.4728V26.4722V26.4715V26.4708V26.4701V26.4694V26.4687V26.4681V26.4674V26.4667V26.466V26.4653V26.4646V26.464V26.4633V26.4626V26.4619V26.4612V26.4606V26.4599V26.4592V26.4585V26.4578V26.4572V26.4565V26.4558V26.4551V26.4544V26.4538V26.4531V26.4524V26.4517V26.451V26.4504V26.4497V26.449V26.4483V26.4476V26.447V26.4463V26.4456V26.4449V26.4443V26.4436V26.4429V26.4422V26.4415V26.4409V26.4402V26.4395V26.4388V26.4381V26.4375V26.4368V26.4361V26.4354V26.4348V26.4341V26.4334V26.4327V26.4321V26.4314V26.4307V26.43V26.4293V26.4287V26.428V26.4273V26.4266V26.426V26.4253V26.4246V26.4239V26.4233V26.4226V26.4219V26.4212V26.4206V26.4199V26.4192V26.4185V26.4179V26.4172V26.4165V26.4158V26.4152V26.4145V26.4138V26.4131V26.4125V26.4118V26.4111V26.4104V26.4098V26.4091V26.4084V26.4077V26.4071V26.4064V26.4057V26.4051V26.4044V26.4037V26.403V26.4024V26.4017V26.401V26.4003V26.3997V26.399V26.3983V26.3976V26.397V26.3963V26.3956V26.395V26.3943V26.3936V26.3929V26.3923V26.3916V26.3909V26.3903V26.3896V26.3889V26.3882V26.3876V26.3869V26.3862V26.3856V26.3849V26.3842V26.3835V26.3829V26.3822V26.3815V26.3809V26.3802V26.3795V26.3788V26.3782V26.3775V26.3768V26.3762V26.3755V26.3748V26.3742V26.3735V26.3728V26.3721V26.3715V26.3708V26.3701V26.3695V26.3688V26.3681V26.3675V26.3668V26.3661V26.3655V26.3648V26.3641V26.3634V26.3628V26.3621V26.3614V26.3608V26.3601V26.3594V26.3588V26.3581V26.3574V26.3568V26.3561V26.3554V26.3548V26.3541V26.3534V26.3528V26.3521V26.3514V26.3508V26.3501V26.3494V26.3487V26.3481V26.3474V26.3467V26.3461V26.3454V26.3447V26.3441V26.3434V26.3427V26.3421V26.3414V26.3407V26.3401V26.3394V26.3387V26.3381V26.3374V26.3367V26.3361V26.3354V26.3347V26.3341V26.3334V26.3327V26.3321V26.3314V26.3307V26.3301V26.3294V26.3287V26.3281V26.3274V26.3268V26.3261V26.3254V26.3248V26.3241V26.3234V26.3228V26.3221V26.3214V26.3208V26.3201V26.3194V26.3188V26.3181V26.3174V26.3168V26.3161V26.3154V26.3148V26.3141V26.3134V26.3128V26.3121V26.3115V26.3108V26.3101V26.3095V26.3088V26.3081V26.3075V26.3068V26.3061V26.3055V26.3048V26.3041V26.3035V26.3028V26.3022V26.3015V26.3008V26.3002V26.2995V26.2988V26.2982V26.2975V26.2968V26.2962V26.2955V26.2949V26.2942V26.2935V26.2929V26.2922V26.2915V26.2909V26.2902V26.2895V26.2889V26.2882V26.2876V26.2869V26.2862V26.2856V26.2849V26.2842V26.2836V26.2829V26.2822V26.2816V26.2809V26.2803V26.2796V26.2789V26.2783V26.2776V26.2769V26.2763V26.2756V26.275V26.2743V26.2736V26.273V26.2723V26.2716V26.271V26.2703V26.2697V26.269V26.2683V26.2677V26.267V26.2663V26.2657V26.265V26.2644V26.2637V26.263V26.2624V26.2617V26.261V26.2604V26.2597V26.2591V26.2584V26.2577V26.2571V26.2564V26.2558V26.2551V26.2544V26.2538V26.2531V26.2524V26.2518V26.2511V26.2505V26.2498V26.2491V26.2485V26.2478V26.2472V26.2465V26.2458V26.2452V26.2445V26.2438V26.2432V26.2425V26.2419V26.2412V26.2405V26.2399V26.2392V26.2386V26.2379V26.2372V26.2366V26.2359V26.2352V26.2346V26.2339V26.2333V26.2326V26.2319V26.2313V26.2306V26.23V26.2293V26.2286V26.228V26.2273V26.2266V26.226V26.2253V26.2247V26.224V26.2233V26.2227V26.222V26.2214V26.2207V26.22V26.2194V26.2187V26.2181V26.2174V26.2167V26.2161V26.2154V26.2147V26.2141V26.2134V26.2128V26.2121V26.2114V26.2108V26.2101V26.2095V26.2088V26.2081V26.2075V26.2068V26.2062V26.2055V26.2048V26.2042V26.2035V26.2028V26.2022V26.0861L26.1626 26.057C25.6028 25.912 25.0184 25.8893 24.449 25.9904C23.8811 26.0913 23.3415 26.3129 22.8667 26.6404C22.3565 26.9517 21.9364 27.3911 21.6484 27.915C21.3607 28.4383 21.2147 29.0277 21.2249 29.6248C21.1866 30.2491 21.2846 30.8742 21.5124 31.4568C21.7408 32.0412 22.0943 32.5687 22.5479 33.0022L22.5501 33.0043C23.8923 34.2361 25.9531 34.5277 27.2223 34.5873L27.2339 34.5879L27.2455 34.5866C27.3196 34.5786 27.3944 34.5786 27.4686 34.5866L27.4685 34.5869L27.477 34.5873C27.7847 34.6031 28.0931 34.6031 28.4008 34.5873L28.4008 34.5874L28.4066 34.5869C28.6819 34.5621 28.9558 34.6477 29.168 34.8249C29.3802 35.002 29.5133 35.2562 29.5381 35.5316C29.5629 35.8069 29.4773 36.0808 29.3001 36.293C29.1243 36.5035 28.8727 36.6362 28.5999 36.6625H28.5772H28.4175L28.4275 36.8219C28.5292 38.4456 28.5036 40.0747 28.3509 41.6944C28.0981 43.6763 27.5416 45.0268 26.8054 46.0929C26.0668 47.1625 25.1432 47.9532 24.1354 48.8153C23.4862 49.3335 22.8174 49.9008 22.1066 50.6057ZM54.625 54.775H54.775V54.625V14.25V14.1H54.625H14.25H14.1V14.25V54.625V54.775H14.25H18.9703H19.1237L19.1203 54.6216C19.1056 53.9656 19.1308 52.9461 19.34 51.9124C19.5498 50.8758 19.9409 49.8442 20.6434 49.1443C21.4113 48.3883 22.1441 47.75 22.7953 47.2054L22.7958 47.205L22.804 47.1981C23.7468 46.4025 24.5222 45.7483 25.107 44.9007C25.6969 44.0456 26.0876 43.0029 26.2857 41.4328L26.2858 41.4329L26.2863 41.4272C26.424 39.8658 26.4439 38.2963 26.346 36.7319L26.3378 36.602L26.2081 36.5917C24.3529 36.4451 22.588 35.7302 21.1536 34.5446C20.4877 33.9182 19.9641 33.156 19.6184 32.3097C19.272 31.4618 19.1122 30.5494 19.1499 29.6343L19.1501 29.6343L19.15 29.6268C19.1419 28.6873 19.3759 27.7615 19.8294 26.9387C20.2828 26.1158 20.9405 25.4235 21.739 24.9284L21.739 24.9284L21.7413 24.927C22.5014 24.4367 23.3676 24.1148 24.1993 23.9881C25.0326 23.8612 25.8203 23.9317 26.4303 24.2128L26.4602 24.2266H26.4931H26.5466H26.6532L26.6882 24.1258C27.1927 22.6747 28.1358 21.4163 29.387 20.5248C30.6381 19.6334 32.1354 19.153 33.6716 19.15C33.6717 19.15 33.6718 19.15 33.6718 19.15L37.4062 19.15C39.4136 19.15 41.3387 19.9474 42.7582 21.3668C44.1776 22.7863 44.975 24.7114 44.975 26.7188V33.4222V33.4806L45.0145 33.5236C46.4399 35.0761 47.2676 37.0844 47.35 39.1904C47.3491 40.9932 46.472 42.435 45.1605 43.4306C43.8457 44.4287 42.097 44.975 40.375 44.975L40.374 44.975C39.6208 44.98 38.8689 44.9132 38.1283 44.7757L37.8978 44.7328L37.9556 44.9601C38.1479 45.7167 38.6078 46.0135 39.2471 46.426L39.2665 46.4385L39.2663 46.4388L39.2749 46.4436C39.7341 46.699 40.1609 47.0089 40.5461 47.3665L40.546 47.3666L40.551 47.3709C41.1297 47.8624 41.7557 48.2952 42.4198 48.6631C44.466 49.8861 47.0617 51.4956 47.3506 54.6387L47.3632 54.775H47.5H54.625ZM26.1369 41.4141C25.745 44.5194 24.5991 45.4872 22.6991 47.0903L21.0544 34.6572C22.5131 35.8643 24.3087 36.592 26.1962 36.7412C26.2937 38.2981 26.2739 39.8602 26.1369 41.4141ZM13.0625 12.025H55.8125C56.0877 12.025 56.3516 12.1343 56.5461 12.3289C56.7407 12.5234 56.85 12.7873 56.85 13.0625V55.8125C56.85 56.0877 56.7407 56.3516 56.5461 56.5461C56.3516 56.7407 56.0877 56.85 55.8125 56.85H13.0625C12.7873 56.85 12.5234 56.7407 12.3289 56.5461C12.1343 56.3516 12.025 56.0877 12.025 55.8125V13.0625C12.025 12.7873 12.1343 12.5234 12.3289 12.3289C12.5234 12.1343 12.7873 12.025 13.0625 12.025Z"
       fill="#000000"
       stroke="white"
       stroke-width="0.3"
       id="path1" />
    <path
       d="M2.225 42.75V42.9H2.375H8.3125C8.58766 42.9 8.85155 43.0093 9.04612 43.2039C9.24069 43.3984 9.35 43.6623 9.35 43.9375C9.35 44.2127 9.24069 44.4766 9.04612 44.6711C8.85155 44.8657 8.58766 44.975 8.3125 44.975H1.1875C0.912338 44.975 0.648446 44.8657 0.453878 44.6711C0.259308 44.4766 0.15 44.2127 0.15 43.9375V1.1875C0.15 0.912338 0.259308 0.648446 0.453877 0.453877C0.648446 0.259308 0.912338 0.15 1.1875 0.15H43.9375C44.2127 0.15 44.4766 0.259308 44.6711 0.453877C44.8657 0.648446 44.975 0.912338 44.975 1.1875V8.3125C44.975 8.58766 44.8657 8.85155 44.6711 9.04612C44.4766 9.24069 44.2127 9.35 43.9375 9.35C43.6623 9.35 43.3984 9.24069 43.2039 9.04612C43.0093 8.85155 42.9 8.58766 42.9 8.3125V2.375V2.225H42.75H2.375H2.225V2.375V42.75Z"
       fill="#000000"
       stroke="#000000"
       stroke-width="0.3"
       id="path2" />
    <path
       d="M35.475 27.3125C35.475 27.8855 35.0105 28.35 34.4375 28.35C33.8645 28.35 33.4 27.8855 33.4 27.3125C33.4 26.7395 33.8645 26.275 34.4375 26.275C35.0105 26.275 35.475 26.7395 35.475 27.3125Z"
       fill="#000000"
       stroke="white"
       stroke-width="0.3"
       id="path3" />
    <path
       d="M40.225 27.3125C40.225 27.8855 39.7605 28.35 39.1875 28.35C38.6145 28.35 38.15 27.8855 38.15 27.3125C38.15 26.7395 38.6145 26.275 39.1875 26.275C39.7605 26.275 40.225 26.7395 40.225 27.3125Z"
       fill="#000000"
       stroke="#000000"
       stroke-width="0.3"
       id="path4" />
  </g>
</svg>
