<?xml version="1.0" encoding="UTF-8" standalone="no"?>
<svg
   width="31"
   height="31"
   viewBox="0 0 31 31"
   fill="none"
   version="1.1"
   id="svg1"
   sodipodi:docname="phone.svg"
   inkscape:version="1.3 (0e150ed, 2023-07-21)"
   xmlns:inkscape="http://www.inkscape.org/namespaces/inkscape"
   xmlns:sodipodi="http://sodipodi.sourceforge.net/DTD/sodipodi-0.dtd"
   xmlns="http://www.w3.org/2000/svg"
   xmlns:svg="http://www.w3.org/2000/svg">
  <defs
     id="defs1" />
  <sodipodi:namedview
     id="namedview1"
     pagecolor="#ffffff"
     bordercolor="#000000"
     borderopacity="0.25"
     inkscape:showpageshadow="2"
     inkscape:pageopacity="0.0"
     inkscape:pagecheckerboard="0"
     inkscape:deskcolor="#d1d1d1"
     inkscape:zoom="7.6129032"
     inkscape:cx="15.5"
     inkscape:cy="15.5"
     inkscape:window-width="1800"
     inkscape:window-height="1097"
     inkscape:window-x="0"
     inkscape:window-y="44"
     inkscape:window-maximized="1"
     inkscape:current-layer="svg1" />
  <path
     fill-rule="evenodd"
     clip-rule="evenodd"
     d="m 15.8361,8.4177788 c 0,-0.18799 0.0748,-0.36826 0.2077,-0.50116 0.133,-0.1329 0.3132,-0.20756 0.5012,-0.20756 1.7892,0.0016 3.5047,0.71326 4.7698,1.97872 1.2651,1.2654902 1.9764,2.9812902 1.9777,4.7707902 -0.004,0.1854 -0.0805,0.3617 -0.2129,0.4914 -0.1325,0.1296 -0.3105,0.2022 -0.4959,0.2022 -0.1853,0 -0.3633,-0.0726 -0.4958,-0.2022 -0.1325,-0.1297 -0.2089,-0.306 -0.2129,-0.4914 -0.0012,-1.4138 -0.5633,-2.7693 -1.5628,-3.7691 -0.9996,-0.9996602 -2.3549,-1.5618002 -3.7685,-1.5629602 -0.188,0 -0.3683,-0.07466 -0.5012,-0.20756 -0.133,-0.1329 -0.2077,-0.31317 -0.2078,-0.50117 z m 0,-3.66528 c 0,0.188 0.0748,0.36827 0.2077,0.50117 0.133,0.1329 0.3132,0.20756 0.5012,0.20756 2.385,0.00267 4.6714,0.9515 6.3577,2.63829 1.6863,1.6868 2.6347,3.9737502 2.637,6.3590502 0.004,0.1854 0.0805,0.3617 0.2129,0.4914 0.1325,0.1296 0.3105,0.2022 0.4959,0.2022 0.1853,0 0.3633,-0.0726 0.4958,-0.2022 0.1325,-0.1297 0.2089,-0.306 0.213,-0.4914 -0.003,-2.7613 -1.1011,-5.4087802 -3.0534,-7.3613602 -1.9522,-1.95258 -4.5993,-3.05083 -7.3602,-3.05377 -0.188,9e-5 -0.3683,0.07482 -0.5012,0.20778 -0.133,0.13296 -0.2077,0.31326 -0.2078,0.50128 z M 29.9144,15.165969 c 0.1875,-4e-4 0.3672,-0.075 0.4998,-0.2076 0.1326,-0.1325 0.2073,-0.3122 0.2078,-0.4998 0,-3.7343 -1.4833,-7.3157502 -4.1235,-9.9563502 -2.6402,-2.64059 -6.221,-4.124057 -9.9548,-4.124057 -0.0944,-0.002055 -0.1883,0.014761 -0.276,0.049463 -0.0878,0.034702 -0.1678,0.08659 -0.2353,0.152621 -0.0675,0.06603 -0.1211,0.144873 -0.1577,0.231902 -0.0366,0.08703 -0.0554,0.180494 -0.0554,0.274911 0,0.09441 0.0188,0.18788 0.0554,0.2749 0.0366,0.08703 0.0902,0.16588 0.1577,0.23191 0.0675,0.06603 0.1475,0.11792 0.2353,0.15262 0.0877,0.0347 0.1816,0.05152 0.276,0.04946 3.3567,0.00347 6.575,1.33869 8.9485,3.71265 2.3736,2.37397 3.7085,5.5927702 3.7119,8.9499702 -10e-5,0.0931 0.0182,0.1853 0.0538,0.2713 0.0356,0.086 0.0878,0.1641 0.1536,0.23 0.0658,0.0658 0.144,0.118 0.23,0.1536 0.086,0.0356 0.1781,0.0539 0.2712,0.0538 z m -4.7181,13.8983 c 0.3354,-0.0561 0.6438,-0.2184 0.88,-0.4631 l 1.433,-1.4336 c -2.251,-1.3559 -4.4065,-2.8646 -6.4512,-4.5154 -0.2011,0.1902 -0.4446,0.3299 -0.7104,0.4074 -0.2657,0.0776 -0.5462,0.0908 -0.818,0.0385 -2.5526,-0.4735 -5.9516,-3.7113 -6.9327,-4.6919 -0.9811,-0.9806 -4.2180899,-4.3807 -4.6915099,-6.9337 -0.05231,-0.2719 -0.03912,-0.5524 0.03847,-0.8183 0.07759,-0.2658 0.21736,-0.5093 0.40773,-0.7103902 -1.65061,-2.04498 -3.15908,-4.20074 -4.5148,-6.45213 l -1.43371,1.43325 c -0.24468,0.23618 -0.4071,0.54469 -0.46334,0.88011 -0.23989,1.13656 -0.1792,2.31605 0.17607,3.42198 l 0.00705,0.02083 C 4.5559201,17.089869 13.9128,26.447769 21.754,28.881769 l 0.0205,0.0071 c 1.1059,0.3552 2.2854,0.4157 3.4218,0.1754 z M 5.8868101,2.1498088 c 0.60253,0.04781 1.17106,0.29847 1.61279,0.71108 0.95587,1.05216 1.786,2.21206 2.47362,3.45626 0.2714899,0.53767 0.4932799,1.38754 -0.61521,2.61344 -1.63897,-2.03723 -3.13088,-4.18856 -4.46441,-6.43767 0.28643,-0.2166 0.63418,-0.33673 0.99321,-0.34311 z M 24.6839,21.030669 c 1.2443,0.6873 2.4041,1.5176 3.4557,2.474 0.8034,1.0082 0.9257,1.8147 0.3673,2.6054 -2.2485,-1.3335 -4.3991,-2.8254 -6.4357,-4.4644 1.226,-1.109 2.0761,-0.8868 2.6127,-0.615 z m 4.4516,6.5153 c 0.3414,-0.3035 0.6174,-0.6733 0.8113,-1.0869 0.1939,-0.4136 0.3017,-0.8623 0.3167,-1.3188 -0.042,-0.9535 -0.4152,-1.8624 -1.0554,-2.5701 -0.0229,-0.0278 -0.0477,-0.054 -0.0742,-0.0783 -1.1487,-1.049 -2.4171,-1.9586 -3.779,-2.7099 -0.006,-0.0037 -0.0122,-0.0071 -0.0185,-0.0101 -0.9784,-0.4987 -2.5139,-0.7528 -4.2736,0.8737 -0.007,0.0057 -0.0134,0.0121 -0.0201,0.0185 l -0.9408,0.9409 c -0.0391,0.0423 -0.0886,0.0735 -0.1436,0.0906 -0.0549,0.017 -0.1134,0.0193 -0.1696,0.0065 -1.4085,-0.2611 -3.8377,-1.949 -6.1887,-4.3014 -2.351,-2.3523 -4.0393799,-4.7809 -4.3007899,-6.1897 -0.01275,-0.0561 -0.01045,-0.1146 0.00666,-0.1696 0.01711,-0.055 0.04842,-0.1045 0.09078,-0.1435 L 10.33744,9.9568888 c 0.0067,-0.00639 0.01311,-0.01311 0.01949,-0.02017 1.62587,-1.75955 1.37257,-3.29529 0.87357,-4.2742 -0.003,-0.00672 -0.0064,-0.01243 -0.0097,-0.01848 -0.7509,-1.36112 -1.6596899,-2.62893 -2.7074899,-3.77718 -0.02446,-0.02665 -0.05073,-0.05157 -0.07862,-0.07461 -0.86957,-0.7057 -1.73241,-1.061908 -2.56938,-1.055523 -0.45571,0.01483 -0.90364,0.122185 -1.31657,0.315543 -0.41294,0.19335 -0.78224,0.46867 -1.08548,0.80921 l -2.06236,2.06099 c -0.44720603,0.43872 -0.74597403,1.00638 -0.85444203,1.62345 -0.285122,1.37401 -0.2073008,2.79862 0.225791,4.13339 1.21967103,3.9216602 4.18956103,8.4421602 8.14963103,12.4021602 3.9601199,3.96 8.4792199,6.9307 12.4013199,8.1512 0.7794,0.2627 1.5969,0.3942 2.4192,0.3892 0.5744,-0.0018 1.1473,-0.0566 1.7116,-0.1637 0.6169,-0.1083 1.1844,-0.4072 1.6229,-0.8545 z"
     fill="#000000"
     id="path1" />
</svg>
