<?xml version="1.0" encoding="UTF-8" standalone="no"?>
<svg
   width="45"
   height="45"
   viewBox="0 0 45 45"
   fill="none"
   version="1.1"
   id="svg2"
   sodipodi:docname="quotes.svg"
   inkscape:version="1.3 (0e150ed, 2023-07-21)"
   xmlns:inkscape="http://www.inkscape.org/namespaces/inkscape"
   xmlns:sodipodi="http://sodipodi.sourceforge.net/DTD/sodipodi-0.dtd"
   xmlns="http://www.w3.org/2000/svg"
   xmlns:svg="http://www.w3.org/2000/svg">
  <defs
     id="defs2" />
  <sodipodi:namedview
     id="namedview2"
     pagecolor="#ffffff"
     bordercolor="#000000"
     borderopacity="0.25"
     inkscape:showpageshadow="2"
     inkscape:pageopacity="0.0"
     inkscape:pagecheckerboard="0"
     inkscape:deskcolor="#d1d1d1"
     showguides="true"
     inkscape:zoom="7.375"
     inkscape:cx="22.372881"
     inkscape:cy="16"
     inkscape:window-width="1800"
     inkscape:window-height="1097"
     inkscape:window-x="0"
     inkscape:window-y="44"
     inkscape:window-maximized="1"
     inkscape:current-layer="svg2">
    <sodipodi:guide
       position="48,45.135593"
       orientation="0,-1"
       id="guide2"
       inkscape:locked="false" />
    <sodipodi:guide
       position="45.016949,0.25423729"
       orientation="0,-1"
       id="guide3"
       inkscape:locked="false" />
  </sodipodi:namedview>
  <g
     id="g3"
     transform="translate(-3.5629791,-0.44915225)">
    <path
       d="m 38.861817,6.9491525 c 5.3024,0 9.6,4.2975995 9.6,9.5999995 0,5.3024 -4.2976,9.6 -9.6,9.6 -0.5152,0 -1.008,-0.0736 -1.5008,-0.1504 2.1984,3.888 6.3232,6.5504 11.1008,6.5504 v 6.4 c -10.5888,0 -19.2,-8.6112 -19.2,-19.2 v -3.2 c 0,-5.3024 4.2976,-9.5999995 9.6,-9.5999995 z"
       fill="#000000"
       id="path1" />
    <path
       d="m 13.264137,6.9491525 c 5.30238,0 9.59998,4.2975995 9.59998,9.5999995 0,5.3024 -4.2976,9.6 -9.59998,9.6 -0.5152,0 -1.00799,-0.0736 -1.50079,-0.1504 2.19837,3.888 6.32317,6.5504 11.10077,6.5504 v 6.4 c -10.58878,0 -19.1999758,-8.6112 -19.1999758,-19.2 v -3.2 c 0,-5.3024 4.2975957,-9.5999995 9.5999958,-9.5999995 z"
       fill="#000000"
       id="path2" />
  </g>
</svg>
