<?xml version="1.0" encoding="UTF-8" standalone="no"?>
<svg
   width="63"
   height="63"
   viewBox="0 0 63 63"
   fill="none"
   version="1.1"
   id="svg1"
   sodipodi:docname="software.svg"
   inkscape:version="1.3 (0e150ed, 2023-07-21)"
   xmlns:inkscape="http://www.inkscape.org/namespaces/inkscape"
   xmlns:sodipodi="http://sodipodi.sourceforge.net/DTD/sodipodi-0.dtd"
   xmlns="http://www.w3.org/2000/svg"
   xmlns:svg="http://www.w3.org/2000/svg">
  <defs
     id="defs1" />
  <sodipodi:namedview
     id="namedview1"
     pagecolor="#ffffff"
     bordercolor="#000000"
     borderopacity="0.25"
     inkscape:showpageshadow="2"
     inkscape:pageopacity="0.0"
     inkscape:pagecheckerboard="0"
     inkscape:deskcolor="#d1d1d1"
     inkscape:zoom="3.7460317"
     inkscape:cx="30.565678"
     inkscape:cy="31.5"
     inkscape:window-width="1800"
     inkscape:window-height="1097"
     inkscape:window-x="0"
     inkscape:window-y="44"
     inkscape:window-maximized="1"
     inkscape:current-layer="svg1" />
  <path
     fill-rule="evenodd"
     clip-rule="evenodd"
     d="m 39.1315,7.1848 h 19.5643 c 0.8845,0.00222 1.7321,0.35457 2.3576,0.98001 0.6254,0.62544 0.9778,1.47308 0.98,2.35759 v 40.2353 c -0.0022,0.8845 -0.3546,1.7321 -0.98,2.3576 -0.6255,0.6254 -1.4731,0.9778 -2.3576,0.98 H 40.0562 L 41.69,61.523 h 4.2567 c 0.1959,0 0.3837,0.0778 0.5222,0.2163 0.1385,0.1385 0.2163,0.3263 0.2163,0.5222 0,0.1959 -0.0778,0.3837 -0.2163,0.5222 C 46.3304,62.9222 46.1426,63 45.9467,63 h -27.86 c -0.1959,0 -0.3837,-0.0778 -0.5222,-0.2163 -0.1385,-0.1385 -0.2163,-0.3263 -0.2163,-0.5222 0,-0.1959 0.0778,-0.3837 0.2163,-0.5222 0.1385,-0.1385 0.3263,-0.2163 0.5222,-0.2163 h 4.256 l 1.6345,-7.4277 H 5.3376 C 4.4531,54.0931 3.60545,53.7407 2.98001,53.1153 2.354569,52.4898 2.0022177,51.6422 2,50.7577 V 10.5224 C 2.0022177,9.63789 2.354569,8.79025 2.98001,8.16481 3.60545,7.53937 4.4531,7.18702 5.3376,7.1848 h 7.2681 V 7.1582 C 12.6137,6.74342 12.7814,6.34771 13.074,6.0536 L 15.6493,3.479 c 0.2947,-0.29351 0.6915,-0.46158 1.1074,-0.469 0.4049,-0.00864 0.8009,0.11934 1.1242,0.3633 l 3.0464,2.2694 c 0.14,-0.063 0.2765,-0.1246 0.42,-0.1841 l 0.0371,-0.0168 c 0.1517,-0.063 0.3068,-0.1232 0.4655,-0.1806 L 22.3994,1.5036 C 22.4557,1.10083 22.6464,0.728874 22.9405,0.448 23.2396,0.16118 23.6377,7.17687e-4 24.0521,0 h 3.64 c 0.4146,5.37551e-4 0.8131,0.161013 1.1123,0.448 0.2937,0.281109 0.4841,0.65299 0.5404,1.0556 l 0.5495,3.7576 c 0.1587,0.0574 0.3138,0.1176 0.4655,0.1806 0.1547,0.0637 0.3066,0.1309 0.455,0.1995 l 3.0429,-2.268 c 0.3235,-0.24411 0.7198,-0.37209 1.1249,-0.3633 0.4151,0.00796 0.8111,0.17599 1.1053,0.469 l 2.5739,2.5746 c 0.2928,0.294 0.4609,0.68972 0.469,1.1046 v 0.0266 z m -10.29,6.769 -3.6995,3.6995 -1.8795,-1.8795 c -0.1384,-0.1387 -0.3262,-0.2167 -0.5222,-0.2169 -0.1959,-2e-4 -0.3839,0.0774 -0.5226,0.2158 -0.1386,0.1385 -0.2167,0.3263 -0.2168,0.5222 -2e-4,0.1959 0.0774,0.3839 0.2158,0.5226 l 2.4017,2.4017 c 0.0685,0.0686 0.1499,0.1229 0.2394,0.16 0.0896,0.0371 0.1855,0.0562 0.2824,0.0562 0.097,0 0.1929,-0.0191 0.2825,-0.0562 0.0895,-0.0371 0.1709,-0.0914 0.2394,-0.16 l 4.221,-4.221 c 0.1327,-0.1396 0.2055,-0.3255 0.2031,-0.518 -0.0024,-0.1926 -0.0799,-0.3766 -0.216,-0.5128 -0.1362,-0.1362 -0.3201,-0.2138 -0.5126,-0.2164 -0.1926,-0.0025 -0.3785,0.0702 -0.5182,0.2028 z M 40.1787,61.523 38.5442,54.0953 H 25.4892 L 23.8547,61.523 Z M 25.8686,8.6261 c -1.7691,-1.4e-4 -3.4836,0.61315 -4.8512,1.7354 -1.3677,1.1222 -2.3039,2.6839 -2.6492,4.419 -0.3452,1.7351 -0.0782,3.5363 0.7557,5.0966 0.8338,1.5603 2.1829,2.7832 3.8173,3.4603 1.6344,0.6772 3.4531,0.7666 5.1461,0.2532 1.693,-0.5135 3.1555,-1.5981 4.1385,-3.069 0.983,-1.4709 1.4255,-3.2371 1.2522,-4.9978 C 33.3047,13.7632 32.5263,12.1171 31.2754,10.8661 30.5662,10.1549 29.7235,9.59087 28.7956,9.20645 27.8677,8.82203 26.873,8.6248 25.8686,8.6261 Z m 4.3624,3.2837 c -1.0093,-1.0091 -2.3373,-1.637 -3.7577,-1.7767 -1.4204,-0.13977 -2.8453,0.2173 -4.0319,1.0104 -1.1866,0.793 -2.0615,1.973 -2.4757,3.3388 -0.4142,1.3658 -0.342,2.833 0.2043,4.1515 0.5463,1.3186 1.5329,2.4069 2.7916,3.0796 1.2588,0.6727 2.7119,0.8881 4.1116,0.6096 1.3998,-0.2785 2.6598,-1.0338 3.5651,-2.1371 0.9054,-1.1034 1.4002,-2.4865 1.4001,-3.9137 C 32.0394,15.4618 31.8802,14.6593 31.57,13.9106 31.2599,13.162 30.8048,12.482 30.231,11.9098 Z M 13.2511,8.6611 H 5.3376 C 4.84458,8.66313 4.37232,8.85988 4.0237,9.2085 3.67508,9.55713 3.47833,10.0294 3.4763,10.5224 V 45.4818 H 60.5571 V 10.5224 C 60.5551,10.0294 60.3583,9.55713 60.0097,9.2085 59.6611,8.85988 59.1888,8.66313 58.6958,8.6611 H 38.4854 l -1.9887,2.6684 c 0.07,0.1491 0.14,0.3024 0.2009,0.4578 0.0609,0.1554 0.1232,0.3073 0.1799,0.4627 l 3.7583,0.5495 c 0.4026,0.0563 0.7745,0.2467 1.0556,0.5404 0.287,0.2992 0.4475,0.6977 0.448,1.1123 v 3.64 c -7e-4,0.4144 -0.1612,0.8125 -0.448,1.1116 -0.2809,0.2941 -0.6528,0.4848 -1.0556,0.5411 l -3.7576,0.5495 c -0.0574,0.1554 -0.1176,0.3096 -0.1806,0.4627 -0.063,0.1531 -0.13,0.3057 -0.2009,0.4578 l 1.1676,1.5673 h 14.2324 c 0.6728,0.0015 1.3177,0.2695 1.7934,0.7453 0.4757,0.4758 0.7435,1.1208 0.7448,1.7936 v 11.7838 c -0.0013,0.6728 -0.2691,1.3176 -0.7449,1.7933 -0.4757,0.4758 -1.1205,0.7436 -1.7933,0.7449 H 34.718 C 34.0452,39.6418 33.4004,39.374 32.9247,38.8982 32.4489,38.4225 32.1811,37.7777 32.1798,37.1049 v -9.184 l -1.3685,-1.0192 c -0.1491,0.07 -0.3024,0.14 -0.4578,0.2009 -0.1554,0.0609 -0.3073,0.1239 -0.4627,0.1806 l -0.5495,3.7583 c -0.0565,0.4026 -0.2469,0.7744 -0.5404,1.0556 -0.2993,0.287 -0.6977,0.4475 -1.1123,0.448 h -3.64 c -0.4144,-7e-4 -0.8125,-0.1612 -1.1116,-0.448 -0.294,-0.281 -0.4846,-0.6529 -0.5411,-1.0556 L 21.8471,27.2832 C 21.6912,27.2267 21.537,27.1665 21.3844,27.1026 21.2318,27.0387 21.079,26.9717 20.9259,26.9017 l -3.0492,2.2694 c -0.3231,0.2444 -0.7192,0.3726 -1.1242,0.364 -0.415,-0.0086 -0.8108,-0.1765 -1.1053,-0.469 l -2.5725,-2.5746 c -0.2928,-0.2943 -0.4605,-0.6903 -0.4683,-1.1053 -0.009,-0.405 0.119,-0.8011 0.3633,-1.1242 l 2.2694,-3.0464 c -0.07,-0.1498 -0.14,-0.3024 -0.2016,-0.4578 -0.0616,-0.1554 -0.1232,-0.3073 -0.1799,-0.4627 L 11.0993,19.7456 C 10.69658,19.6891 10.32467,19.4985 10.0437,19.2045 9.75688,18.9054 9.59642,18.5073 9.5957,18.0929 v -3.64 c 5.4e-4,-0.4146 0.16101,-0.8131 0.448,-1.1123 0.28121,-0.2935 0.65304,-0.4839 1.0556,-0.5404 L 14.8569,12.25 c 0.0579,-0.1587 0.1183,-0.3141 0.1813,-0.4662 0.0644,-0.1545 0.1311,-0.3061 0.2002,-0.455 l -1.988,-2.6684 z m 22.5792,14.1218 -0.7819,-1.05 c -0.082,-0.1104 -0.1314,-0.2417 -0.1426,-0.3788 -0.0111,-0.1371 0.0165,-0.2746 0.0796,-0.3968 0.1302,-0.2527 0.2478,-0.5068 0.35,-0.7602 0.1022,-0.2534 0.2044,-0.5229 0.2912,-0.7931 0.042,-0.1311 0.12,-0.2478 0.2251,-0.3367 0.1051,-0.089 0.233,-0.1467 0.3692,-0.1666 l 4.2,-0.6146 c 0.0739,-0.0075 0.1431,-0.0396 0.1967,-0.091 0.0271,-0.0273 0.0429,-0.0638 0.0441,-0.1022 v -3.64 C 40.6612,14.4147 40.6465,14.378 40.6204,14.35 40.5667,14.2988 40.4975,14.2668 40.4237,14.259 l -4.2,-0.6139 c -0.1441,-0.0212 -0.2786,-0.0846 -0.3867,-0.1821 -0.1082,-0.0975 -0.185,-0.2249 -0.2209,-0.366 -0.0831,-0.2548 -0.1764,-0.5047 -0.28,-0.7497 -0.105,-0.2534 -0.2217,-0.5066 -0.35,-0.7595 -0.0655,-0.1272 -0.0926,-0.2707 -0.0779,-0.413 0.0147,-0.1424 0.0704,-0.2773 0.1605,-0.3885 l 2.52,-3.3796 c 0.048,-0.05949 0.0745,-0.13353 0.0749,-0.21 -6e-4,-0.03793 -0.0157,-0.07421 -0.042,-0.1015 L 35.0435,4.5227 C 35.0162,4.49635 34.9799,4.48134 34.942,4.4807 34.8656,4.48148 34.7917,4.50785 34.732,4.5556 L 31.3265,7.0924 C 31.2161,7.17439 31.0849,7.22381 30.9478,7.23507 30.8107,7.24633 30.6732,7.21897 30.5509,7.1561 30.2984,7.0259 30.0453,6.90923 29.7914,6.8061 29.5259,6.69597 29.2624,6.5989 29.0011,6.5149 28.8699,6.473 28.7532,6.39506 28.6642,6.28997 28.5752,6.18488 28.5175,6.05689 28.4978,5.9206 l -0.6139,-4.2 C 27.8761,1.6468 27.8441,1.57765 27.7929,1.5239 27.7654,1.49669 27.7286,1.48093 27.69,1.4798 h -3.64 c -0.0384,0.00124 -0.0749,0.017 -0.1022,0.0441 -0.0512,0.05375 -0.0832,0.1229 -0.091,0.1967 l -0.6139,4.2 c -0.0213,0.14403 -0.0847,0.27855 -0.1822,0.38665 -0.0975,0.10811 -0.2248,0.18498 -0.3659,0.22095 -0.2473,0.08027 -0.4963,0.1736 -0.7469,0.28 l -0.0371,0.014 C 21.6686,6.92347 21.4269,7.0364 21.1856,7.161 21.0584,7.2265 20.9149,7.25358 20.7726,7.23891 20.6302,7.22424 20.4953,7.16847 20.3841,7.0784 l -3.3796,-2.52 c -0.0597,-0.04766 -0.1336,-0.07402 -0.21,-0.0749 -0.0381,7.4e-4 -0.0746,0.01573 -0.1022,0.042 l -2.5739,2.5746 c -0.0133,0.01333 -0.0239,0.02916 -0.0311,0.04657 -0.0072,0.01742 -0.0109,0.03608 -0.0109,0.05493 3e-4,0.07648 0.0268,0.15057 0.0749,0.21 l 2.5354,3.3999 c 0.0819,0.1105 0.1312,0.2417 0.1423,0.3788 0.0111,0.1371 -0.0163,0.2745 -0.0793,0.3968 -0.1295,0.2527 -0.2478,0.5061 -0.35,0.7588 -0.1097,0.2655 -0.2067,0.529 -0.2912,0.7903 -0.042,0.1311 -0.12,0.2478 -0.2251,0.3367 -0.1051,0.089 -0.233,0.1467 -0.3692,0.1666 l -4.2,0.6139 c -0.07364,0.0077 -0.14262,0.0397 -0.196,0.091 -0.02738,0.0274 -0.04318,0.0642 -0.0441,0.1029 v 3.64 c 9.6e-4,0.0385 0.01676,0.0751 0.0441,0.1022 0.05319,0.0516 0.12227,0.0837 0.196,0.091 l 4.2,0.6146 c 0.1442,0.0208 0.2789,0.084 0.3872,0.1814 0.1083,0.0975 0.1852,0.2248 0.2211,0.366 0.0826,0.2553 0.1748,0.5052 0.2765,0.7497 0.105,0.2534 0.2233,0.5068 0.35,0.7602 0.0657,0.127 0.0929,0.2705 0.0782,0.4127 -0.0146,0.1423 -0.0705,0.2772 -0.1608,0.3881 l -2.52,3.3796 c -0.0479,0.0596 -0.0743,0.1336 -0.0749,0.21 10e-5,0.038 0.0152,0.0745 0.042,0.1015 l 2.5739,2.5739 c 0.0273,0.0268 0.064,0.0419 0.1022,0.042 0.0764,-6e-4 0.1505,-0.027 0.21,-0.0749 l 3.4048,-2.5368 c 0.1106,-0.0817 0.2418,-0.1309 0.3788,-0.1421 0.1371,-0.0111 0.2745,0.0163 0.3968,0.0791 0.252,0.1302 0.5061,0.2478 0.7595,0.35 0.2534,0.1022 0.5229,0.2044 0.7931,0.2905 0.131,0.0423 0.2475,0.1203 0.3364,0.2253 0.089,0.1051 0.1468,0.2329 0.1669,0.369 l 0.6139,4.2 c 0.0077,0.0736 0.0397,0.1426 0.091,0.196 0.0271,0.0273 0.0637,0.0431 0.1022,0.0441 h 3.64 c 0.0387,-9e-4 0.0755,-0.0167 0.1029,-0.0441 0.0513,-0.0534 0.0833,-0.1224 0.091,-0.196 l 0.6139,-4.2 c 0.0211,-0.1442 0.0844,-0.2789 0.1819,-0.3872 0.0976,-0.1082 0.225,-0.1852 0.3662,-0.2211 0.2548,-0.0826 0.5047,-0.1748 0.7497,-0.2765 0.2534,-0.105 0.5066,-0.2217 0.7595,-0.35 0.1271,-0.0656 0.2706,-0.0928 0.4129,-0.0782 0.1424,0.0145 0.2774,0.0701 0.3886,0.1601 l 0.8246,0.6146 v -0.7602 c 0.0013,-0.6728 0.2691,-1.3178 0.7448,-1.7936 0.4757,-0.4758 1.1206,-0.7438 1.7934,-0.7453 z m 3.2564,4.3596 -3.549,3.549 c -0.0686,0.0685 -0.1229,0.1499 -0.16,0.2394 -0.0371,0.0896 -0.0562,0.1855 -0.0562,0.2825 0,0.0969 0.0191,0.1928 0.0562,0.2824 0.0371,0.0895 0.0914,0.1709 0.16,0.2394 l 3.549,3.549 c 0.1397,0.1326 0.3256,0.2053 0.5182,0.2028 0.1925,-0.0026 0.3764,-0.0802 0.5126,-0.2164 0.1361,-0.1362 0.2136,-0.3202 0.216,-0.5128 0.0024,-0.1925 -0.0704,-0.3784 -0.2031,-0.518 l -3.0296,-3.0268 3.0268,-3.0268 c 0.1281,-0.1401 0.1972,-0.3241 0.1931,-0.5139 -0.0041,-0.1897 -0.0812,-0.3706 -0.2152,-0.505 -0.134,-0.1344 -0.3147,-0.2119 -0.5044,-0.2165 -0.1898,-0.0047 -0.374,0.064 -0.5144,0.1917 z m 7.4053,1.0437 3.0247,3.0268 -3.0268,3.0268 c -0.1327,0.1396 -0.2055,0.3255 -0.2031,0.518 0.0024,0.1926 0.0799,0.3766 0.216,0.5128 0.1362,0.1362 0.3201,0.2138 0.5126,0.2164 0.1926,0.0025 0.3785,-0.0702 0.5182,-0.2028 l 3.549,-3.549 c 0.0685,-0.0685 0.1229,-0.1499 0.16,-0.2394 0.0371,-0.0896 0.0562,-0.1855 0.0562,-0.2824 0,-0.097 -0.0191,-0.1929 -0.0562,-0.2825 -0.0371,-0.0895 -0.0915,-0.1709 -0.16,-0.2394 l -3.549,-3.549 c -0.1384,-0.1384 -0.3261,-0.2162 -0.5219,-0.2162 -0.1957,0 -0.3834,0.0778 -0.5218,0.2162 -0.1384,0.1384 -0.2162,0.3261 -0.2162,0.5219 0,0.1957 0.0778,0.3834 0.2162,0.5218 z m -2.8777,-0.952 -2.03,7.5768 c -0.0276,0.0944 -0.0361,0.1933 -0.0249,0.291 0.0112,0.0977 0.0418,0.1922 0.0901,0.2779 0.0482,0.0857 0.1131,0.1609 0.1908,0.2212 0.0777,0.0603 0.1667,0.1044 0.2617,0.1298 0.095,0.0254 0.1941,0.0315 0.2915,0.018 0.0975,-0.0135 0.1912,-0.0463 0.2757,-0.0965 0.0846,-0.0502 0.1582,-0.1168 0.2167,-0.1959 0.0584,-0.0791 0.1004,-0.1691 0.1236,-0.2647 l 2.0272,-7.5768 c 0.025,-0.0935 0.0313,-0.1911 0.0186,-0.2871 -0.0126,-0.0959 -0.0441,-0.1885 -0.0926,-0.2723 -0.0484,-0.0838 -0.1129,-0.1573 -0.1898,-0.2162 -0.0768,-0.0589 -0.1645,-0.102 -0.258,-0.1271 -0.1889,-0.0504 -0.3902,-0.0238 -0.5595,0.074 -0.1692,0.0979 -0.2927,0.259 -0.3432,0.4479 z m 9.3492,9.87 V 25.3218 c -0.0015,-0.282 -0.1145,-0.552 -0.3144,-0.751 -0.1999,-0.1989 -0.4704,-0.3107 -0.7524,-0.3109 H 34.718 c -0.2812,0.0015 -0.5504,0.1138 -0.7492,0.3126 -0.1989,0.1989 -0.3112,0.4681 -0.3127,0.7493 v 11.7831 c 0.0017,0.2811 0.1141,0.5503 0.3129,0.7491 0.1987,0.1987 0.4679,0.3111 0.749,0.3128 h 17.1787 c 0.2811,-0.0017 0.5503,-0.1141 0.749,-0.3128 0.1988,-0.1988 0.3112,-0.468 0.3129,-0.7491 z M 3.4763,46.9588 v 3.7989 c 0.00221,0.4929 0.19904,0.965 0.54765,1.3134 0.3486,0.3485 0.82075,0.5452 1.31365,0.5472 h 53.3582 c 0.4929,-0.002 0.965,-0.1987 1.3136,-0.5472 0.3487,-0.3484 0.5455,-0.8205 0.5477,-1.3134 v -3.7989 z"
     fill="#000000"
     id="path1" />
</svg>
