<svg width="59" height="59" fill="none" xmlns="http://www.w3.org/2000/svg"><path d="M24.89 53.469h9.22a.922.922 0 0 0 0-1.844h-9.22a.921.921 0 1 0 0 1.844Z" fill="#000"/><path d="M54.39 0H4.61A4.61 4.61 0 0 0 0 4.61v36.874a4.61 4.61 0 0 0 4.61 4.61h16.187l-2.074 5.531h-.285a3.688 3.688 0 0 0 0 7.375h22.125a3.688 3.688 0 0 0 0-7.375h-.286l-2.075-5.531h16.189A4.61 4.61 0 0 0 59 41.484V4.61A4.608 4.608 0 0 0 54.39 0ZM4.61 1.844h49.78a2.766 2.766 0 0 1 2.766 2.765v34.11H1.844V4.609a2.766 2.766 0 0 1 2.765-2.765ZM38.773 52.87a.921.921 0 0 0 .867.599h.922a1.843 1.843 0 1 1 0 3.687H18.436a1.843 1.843 0 1 1 0-3.687h.922a.922.922 0 0 0 .867-.6l2.535-6.775h13.48l2.535 6.776Zm15.617-8.62H4.609a2.766 2.766 0 0 1-2.765-2.766v-.922h55.312v.922a2.765 2.765 0 0 1-2.765 2.766Z" fill="#000"/><path d="M7.375 35.031a.922.922 0 0 0 .922-.922V9.22a.922.922 0 0 1 .922-.922H42l7.54 8.297h-6.213a.922.922 0 0 1-.922-.922v-1.844a.921.921 0 1 0-1.843 0v1.844a2.766 2.766 0 0 0 2.765 2.765h7.375V34.11a.922.922 0 0 0 1.844 0V17.156L42.812 6.453H9.219A2.766 2.766 0 0 0 6.453 9.22v24.89a.922.922 0 0 0 .922.922Z" fill="#000"/><path d="M35.953 14.75h-3.816a3.688 3.688 0 1 0 0 1.844h3.816a.922.922 0 0 0 0-1.844Zm-7.375 2.766a1.844 1.844 0 1 1 0-3.688 1.844 1.844 0 0 1 0 3.688Zm-15.672-.922h8.297a.922.922 0 0 0 0-1.844h-8.297a.922.922 0 0 0 0 1.844Zm7.375 5.531a3.687 3.687 0 0 0-3.558 2.766h-3.817a.922.922 0 0 0 0 1.843h3.817a3.687 3.687 0 1 0 3.558-4.609Zm0 5.531a1.844 1.844 0 1 1 0-3.687 1.844 1.844 0 0 1 0 3.687Zm15.672-2.766h-8.297a.922.922 0 0 0 0 1.844h8.297a.922.922 0 0 0 0-1.843Z" fill="#000"/></svg>