<svg width="70" height="70" fill="none" xmlns="http://www.w3.org/2000/svg"><g fill="#000"><path d="M43.752 40.38a7.004 7.004 0 0 1-4.711-1.763l-19.315-17.47a1.915 1.915 0 0 1 1.29-3.35H66.48a1.924 1.924 0 0 1 1.298 3.35l-19.324 17.47a7.005 7.005 0 0 1-4.703 1.763zM21.016 19.624 40.298 37.24a5.335 5.335 0 0 0 6.909 0L66.53 19.761l-15.472-.137Z"/><path d="M19.047 49.354 34.55 33.882l1.32 1.316L20.365 50.67Zm32.293-14.46 1.318-1.317 16.22 16.187-1.318 1.317Z"/><path d="M67.202 52.204h-46.9a2.79 2.79 0 0 1-2.798-2.792v-3.949h-4.151a.931.931 0 1 1 0-1.86h5.084a.94.94 0 0 1 .932.93v4.856-.001a.922.922 0 0 0 .933.987h46.9a.932.932 0 0 0 .933-.93V20.588a.93.93 0 0 0-.933-.963h-46.9a.925.925 0 0 0-.933.93v5.309a.93.93 0 0 1-.932.93H4.863a.933.933 0 0 1-1.02-.926.93.93 0 0 1 1.02-.927h12.642v-4.353a2.791 2.791 0 0 1 2.797-2.792h46.9a2.8 2.8 0 0 1 1.978.817 2.79 2.79 0 0 1 .82 1.975v28.824c0 .74-.295 1.45-.82 1.974a2.8 2.8 0 0 1-1.978.818z"/><path d="M22.51 31.15h-9.812a.931.931 0 1 1 0-1.862h9.812a.932.932 0 1 1 0 1.861zm-8.255 4.32H.933a.931.931 0 1 1 0-1.861h13.322a.931.931 0 1 1 0 1.86zm3.912 4.461h-7.379a.931.931 0 1 1 0-1.861h7.38a.932.932 0 1 1 0 1.861z"/></g></svg>