<svg width="30" height="30" fill="none" xmlns="http://www.w3.org/2000/svg"><path d="M29.842 5.324c-.008-.013-.015-.027-.025-.04-.005-.006-.012-.01-.017-.017a.825.825 0 0 0-.068-.07c-.015-.015-.03-.03-.046-.042a.707.707 0 0 0-.085-.056c-.016-.01-.03-.02-.046-.028a.654.654 0 0 0-.108-.04c-.013-.004-.025-.01-.037-.013A.684.684 0 0 0 29.253 5H.746a.67.67 0 0 0-.155.019c-.015.003-.028.01-.042.014a.703.703 0 0 0-.103.039c-.018.008-.034.02-.051.03a.727.727 0 0 0-.08.053.63.63 0 0 0-.049.046.724.724 0 0 0-.063.066l-.019.02-.024.038A.88.88 0 0 0 0 5.83v18.34c0 .22.079.431.219.587.14.155.33.243.527.243h28.507a.711.711 0 0 0 .528-.243.88.88 0 0 0 .219-.587V5.83a.88.88 0 0 0-.158-.506Zm-1.642.718L15 17.224 1.8 6.042Zm.862 17.916H.938V6.622l13.778 11.67c.081.07.181.107.284.107a.439.439 0 0 0 .284-.106L29.062 6.622Z" fill="#000" style="stroke-width:1.10892"/></svg>