<svg width="62" height="62" fill="none" xmlns="http://www.w3.org/2000/svg"><g fill="#000"><path d="M33.546 45.938h-3.325a.833.833 0 0 0-.83.831c0 .458.372.831.83.831h3.325a.833.833 0 0 0 .832-.831.833.833 0 0 0-.832-.831zm-5.7-17.524-2.734-2.74 2.684-2.684a.833.833 0 0 0 0-1.176.833.833 0 0 0-1.176 0l-3.276 3.275a.833.833 0 0 0 0 1.177l3.325 3.325a.828.828 0 0 0 .585.246.834.834 0 0 0 .585-1.423zm11.039-2.691-2.684 2.684a.833.833 0 0 0 .585 1.423.828.828 0 0 0 .585-.247l3.275-3.276a.834.834 0 0 0 0-1.176l-3.325-3.325a.834.834 0 0 0-1.176 0 .834.834 0 0 0 0 1.176l2.733 2.74zm-9.235 4.016a.824.824 0 0 0 1.113-.366l3.325-6.601a.83.83 0 0 0-1.48-.747l-3.325 6.6a.83.83 0 0 0 .366 1.114z"/><path d="m6.867 46.086 1.564-2.705a.82.82 0 0 0 0-.824 7.88 7.88 0 0 1-.711-1.726.834.834 0 0 0-.585-.578l-3.015-.81v-1.465l3.015-.81a.834.834 0 0 0 .585-.578 8.025 8.025 0 0 1 .711-1.726.856.856 0 0 0 0-.824l-1.564-2.705 1.036-1.036 2.705 1.564a.82.82 0 0 0 .824 0 7.885 7.885 0 0 1 1.726-.711.834.834 0 0 0 .578-.585l.81-3.015h1.465l.81 3.015a.834.834 0 0 0 .578.585 8.025 8.025 0 0 1 1.726.711c.254.141.57.141.824 0l2.705-1.564 1.036 1.036-1.564 2.705a.821.821 0 0 0 0 .824 7.88 7.88 0 0 1 .712 1.726c.077.282.302.5.584.578l3.015.81v1.465l-3.015.81a.834.834 0 0 0-.584.578 7.698 7.698 0 0 1-.543 1.402.432.432 0 0 0-.05.099c-.042.077-.077.147-.12.225a.857.857 0 0 0 0 .824l1.565 2.705-1.036 1.036-2.705-1.564a.821.821 0 0 0-.824 0 7.49 7.49 0 0 1-1.726.711.834.834 0 0 0-.578.585l-.81 3.015h-1.465l-.81-3.015a.834.834 0 0 0-.578-.584 8.024 8.024 0 0 1-1.726-.712.856.856 0 0 0-.824 0l-2.705 1.564ZM21.492 1.663h19.866a3.52 3.52 0 0 1 3.515 3.515v1.339H17.977V5.178a3.52 3.52 0 0 1 3.515-3.515zm5.98 34.878-3.19-.853a9.033 9.033 0 0 0-.5-1.204l1.648-2.86a.821.821 0 0 0-.134-1l-1.937-1.938a.833.833 0 0 0-1-.134l-2.86 1.649a9.033 9.033 0 0 0-1.205-.5l-.345-1.29a.75.75 0 0 0 .02-.176V8.18h26.897v33.645h-20.62s.022-.049.029-.077l3.19-.852a.829.829 0 0 0 .614-.804v-2.74a.837.837 0 0 0-.613-.803zm13.886 13.328H21.492a3.536 3.536 0 0 1-3.184-2.014c-.007-.022-.021-.036-.028-.057l.02-.07a9.04 9.04 0 0 0 1.205-.5l2.86 1.648a.82.82 0 0 0 1-.134l1.938-1.937a.832.832 0 0 0 .134-1l-1.339-2.325h20.775v2.867a3.52 3.52 0 0 1-3.515 3.515zm-33.173-.993 2.86-1.648c.387.197.789.359 1.204.5l.853 3.191c.098.366.43.613.803.613h2.74a.837.837 0 0 0 .803-.613l.275-1.021a5.215 5.215 0 0 0 3.776 1.634h19.866a5.186 5.186 0 0 0 5.178-5.178V5.178A5.186 5.186 0 0 0 41.365 0H21.499a5.186 5.186 0 0 0-5.178 5.178v20.718h-2.41a.837.837 0 0 0-.802.613l-.853 3.191a9.083 9.083 0 0 0-1.204.5l-2.86-1.648a.821.821 0 0 0-1 .134l-1.938 1.937a.833.833 0 0 0-.134 1l1.649 2.86c-.198.388-.36.797-.5 1.205l-3.192.853a.829.829 0 0 0-.613.803v2.74c0 .374.254.705.613.803l3.191.853c.141.415.303.817.5 1.204l-1.648 2.86a.821.821 0 0 0 .134 1l1.937 1.938a.832.832 0 0 0 1 .134z"/><path d="M15.271 35.96a2.766 2.766 0 0 1 2.762 2.761 2.766 2.766 0 0 1-2.762 2.762 2.766 2.766 0 0 1-2.761-2.762 2.766 2.766 0 0 1 2.761-2.761zm0 7.185a4.432 4.432 0 0 0 4.424-4.424 4.432 4.432 0 0 0-4.424-4.424 4.432 4.432 0 0 0-4.424 4.424 4.432 4.432 0 0 0 4.424 4.424zM7.601 23.23v3.501c0 .458.373.831.831.831a.833.833 0 0 0 .832-.83V23.23a.833.833 0 0 0-.832-.831.833.833 0 0 0-.831.83zM50.546 8.178a4.048 4.048 0 0 1 4.043 4.044v16.773c0 .458.374.832.831.832a.833.833 0 0 0 .832-.832V12.222a5.71 5.71 0 0 0-5.706-5.706.833.833 0 0 0-.832.831c0 .458.374.831.832.831zM7.801 20.359a.828.828 0 0 0 .585.246.828.828 0 0 0 .585-.246l3.282-3.283a.833.833 0 0 0 0-1.177.833.833 0 0 0-1.176 0l-1.825 1.825v-5.502a4.048 4.048 0 0 1 4.044-4.044.833.833 0 0 0 .831-.83.833.833 0 0 0-.831-.832 5.71 5.71 0 0 0-5.706 5.706v5.586L5.68 15.9a.833.833 0 0 0-1.176 0 .833.833 0 0 0 0 1.177l3.283 3.283zM30.63 54.004a.833.833 0 0 0-1.176 0 .833.833 0 0 0 0 1.177l1.866 1.866H13.307a4.048 4.048 0 0 1-4.043-4.043v-1.86a.833.833 0 0 0-.832-.831.833.833 0 0 0-.831.831v1.86a5.71 5.71 0 0 0 5.706 5.706H31.32l-1.866 1.867A.833.833 0 0 0 30.038 62a.828.828 0 0 0 .585-.247l3.283-3.283a.833.833 0 0 0 .246-.584.804.804 0 0 0-.246-.585l-3.283-3.283Zm28.663-17.829-3.283-3.283a.833.833 0 0 0-1.177 0l-3.282 3.282a.833.833 0 0 0 .584 1.424.828.828 0 0 0 .585-.247l1.867-1.867v17.513a4.048 4.048 0 0 1-4.044 4.044h-11.49a.833.833 0 0 0-.83.831c0 .458.373.831.83.831h11.49a5.71 5.71 0 0 0 5.706-5.706v-17.52l1.867 1.867a.833.833 0 0 0 1.177 0 .834.834 0 0 0 0-1.177z"/></g></svg>