<svg width="57" height="57" fill="none" xmlns="http://www.w3.org/2000/svg"><g fill="#000" stroke-width=".3"><path d="M38.938 48.925a5.64 5.64 0 0 0-.867-.635 4.46 4.46 0 0 1-2.446-4.157 8.788 8.788 0 0 1-2.618-1.733l5.931 6.525Zm0 0c.697.632 1.467 1.18 2.292 1.633l-2.292-1.633ZM26.493 24.077c-1.288-.594-3.277-.28-4.833.724A5.623 5.623 0 0 0 19 29.628l7.493-5.551Zm0 0h.054-.054Zm11.771 20.875c.697.12 1.404.178 2.111.173l-2.11-.173Zm0 0a1.919 1.919 0 0 1-.018-.066l-.145.037-.027.148.075.013c.198.583.597.84 1.195 1.226l.004.002c.47.262.906.579 1.3.945.572.485 1.19.913 1.847 1.276l-4.23-3.58Zm-16.157 5.654h-.001c-.4.404-.629 1.127-.754 1.868-.127.749-.154 1.552-.127 2.152l.007.143h24.01l-.028-.174c-.162-1-.71-1.78-1.428-2.438-.716-.656-1.61-1.2-2.478-1.727l-.006-.004a11.858 11.858 0 0 1-2.263-1.612l-.001-.001a5.795 5.795 0 0 0-.89-.652l-.01-.005a4.31 4.31 0 0 1-2.363-4.017l.004-.103-.095-.04a8.639 8.639 0 0 1-2.568-1.7 1.037 1.037 0 0 1 1.467-1.457 8.462 8.462 0 0 0 5.794 2.061c1.913 0 3.92-.88 4.63-2.464l.094-.211h-5.913a1.037 1.037 0 1 1 0-2.075h5.977l-.056-.192a8.285 8.285 0 0 0-4.003-4.965h-.001a1.037 1.037 0 0 1 .921-1.858c.22.11.435.233.643.365l.231.147V26.72a5.494 5.494 0 0 0-5.494-5.494h-3.734a5.327 5.327 0 0 0-5.322 5.321v3.142a1.037 1.037 0 1 1-2.075 0v-3.603l-.112-.029a4.026 4.026 0 0 0-3.296.583 3.427 3.427 0 0 0-1.642 2.985 4.306 4.306 0 0 0 1.323 3.377l.002.002c1.342 1.232 3.403 1.524 4.672 1.583h.023a1.04 1.04 0 0 1 .224 0h.008a8.9 8.9 0 0 0 .924 0h.006a1.042 1.042 0 0 1 .193 2.075h-.183l.01.16a31.16 31.16 0 0 1-.076 4.872c-.253 1.982-.81 3.333-1.546 4.399-.738 1.07-1.662 1.86-2.67 2.722a24.56 24.56 0 0 0-2.028 1.79Zm32.518 4.169h.15V14.1H14.1v40.675h5.024l-.004-.153c-.014-.656.01-1.676.22-2.71.21-1.036.6-2.068 1.303-2.768a35.32 35.32 0 0 1 2.152-1.939l.009-.007c.943-.795 1.718-1.45 2.303-2.297.59-.855.98-1.898 1.179-3.468v-.006a31.18 31.18 0 0 0 .06-4.695l-.008-.13-.13-.01a9.053 9.053 0 0 1-5.054-2.047 6.382 6.382 0 0 1-2.004-4.91v-.008a5.471 5.471 0 0 1 2.589-4.699l.002-.001a6.385 6.385 0 0 1 2.458-.939c.834-.127 1.621-.056 2.231.225l.03.014h.193l.035-.101a7.409 7.409 0 0 1 6.984-4.976h3.734a7.57 7.57 0 0 1 7.569 7.569v6.761l.04.043a8.893 8.893 0 0 1 2.335 5.666c0 1.803-.878 3.245-2.19 4.24-1.314.999-3.063 1.545-4.785 1.545h-.001a11.87 11.87 0 0 1-2.246-.2l-.23-.042.058.227c.192.757.652 1.053 1.291 1.466l.02.012.008.006c.46.255.886.565 1.271.922l.005.005c.579.491 1.205.924 1.869 1.292 2.046 1.223 4.642 2.833 4.93 5.976l.013.136h7.262Zm-28.488-13.36c-.392 3.104-1.538 4.072-3.438 5.675l-1.645-12.433a9.203 9.203 0 0 0 5.142 2.084 31.086 31.086 0 0 1-.06 4.673Zm-13.075-29.39h42.75a1.037 1.037 0 0 1 1.038 1.037v42.75a1.037 1.037 0 0 1-1.038 1.038h-42.75a1.037 1.037 0 0 1-1.037-1.038v-42.75a1.037 1.037 0 0 1 1.037-1.037Z" stroke="#fff"/><path d="M2.225 42.75v.15h6.088a1.037 1.037 0 1 1 0 2.075H1.186A1.037 1.037 0 0 1 .15 43.937V1.188A1.037 1.037 0 0 1 1.188.15h42.75a1.037 1.037 0 0 1 1.037 1.038v7.125a1.037 1.037 0 1 1-2.075 0V2.224H2.225V42.75Z" stroke="#000"/><path d="M35.475 27.313a1.037 1.037 0 1 1-2.075 0 1.037 1.037 0 0 1 2.075 0Z" stroke="#fff"/><path d="M40.225 27.313a1.037 1.037 0 1 1-2.075 0 1.037 1.037 0 0 1 2.075 0Z" stroke="#000"/></g></svg>