<svg width="31" height="31" fill="none" xmlns="http://www.w3.org/2000/svg"><path fill-rule="evenodd" clip-rule="evenodd" d="M15.836 8.418a.709.709 0 0 1 .709-.709 6.753 6.753 0 0 1 6.747 6.75.71.71 0 0 1-1.417 0 5.338 5.338 0 0 0-5.331-5.332.709.709 0 0 1-.71-.71zm0-3.666a.709.709 0 0 0 .709.71 9.004 9.004 0 0 1 8.995 8.997.71.71 0 0 0 1.417 0A10.427 10.427 0 0 0 16.544 4.043a.71.71 0 0 0-.71.71zm14.078 10.414a.709.709 0 0 0 .708-.707A14.082 14.082 0 0 0 16.544.379a.708.708 0 1 0 0 1.417 12.672 12.672 0 0 1 12.66 12.663.707.707 0 0 0 .709.708zm-4.718 13.898c.336-.056.644-.218.88-.463l1.433-1.433a57.498 57.498 0 0 1-6.45-4.516 1.745 1.745 0 0 1-1.53.446c-2.552-.473-5.95-3.711-6.932-4.692-.981-.98-4.218-4.38-4.692-6.934a1.745 1.745 0 0 1 .447-1.528 57.495 57.495 0 0 1-4.515-6.452L2.403 4.925a1.588 1.588 0 0 0-.463.88 6.679 6.679 0 0 0 .176 3.422l.007.02c2.433 7.843 11.79 17.2 19.631 19.635l.02.007a6.674 6.674 0 0 0 3.422.175zM5.886 2.15a2.672 2.672 0 0 1 1.614.71 18.314 18.314 0 0 1 2.473 3.457c.272.538.493 1.388-.615 2.614a55.104 55.104 0 0 1-4.464-6.438 1.69 1.69 0 0 1 .993-.343zm18.798 18.88a18.253 18.253 0 0 1 3.456 2.475c.803 1.008.925 1.814.367 2.605a55.072 55.072 0 0 1-6.436-4.464c1.226-1.11 2.076-.887 2.613-.615zm4.452 6.516a3.366 3.366 0 0 0 1.128-2.406 4.1 4.1 0 0 0-1.13-2.648 19.754 19.754 0 0 0-3.798-2.72c-.978-.499-2.513-.753-4.273.874l-.02.018-.941.941a.328.328 0 0 1-.313.097c-1.409-.261-3.838-1.949-6.189-4.301-2.351-2.353-4.04-4.781-4.3-6.19a.327.327 0 0 1 .097-.313l.94-.941a.377.377 0 0 0 .02-.02c1.626-1.76 1.373-3.296.874-4.274l-.01-.019a19.775 19.775 0 0 0-2.708-3.777.787.787 0 0 0-.078-.075C7.565 1.087 6.702.73 5.865.737A3.362 3.362 0 0 0 3.463 1.86L1.401 3.922a3.002 3.002 0 0 0-.855 1.624 8.076 8.076 0 0 0 .226 4.133c1.22 3.922 4.19 8.442 8.15 12.402 3.96 3.96 8.48 6.931 12.401 8.152.78.262 1.597.394 2.42.389a9.336 9.336 0 0 0 1.711-.164 2.999 2.999 0 0 0 1.623-.854z" fill="#000"/></svg>