<svg width="63" height="63" fill="none" xmlns="http://www.w3.org/2000/svg"><path fill-rule="evenodd" clip-rule="evenodd" d="M39.132 7.185h19.564a3.346 3.346 0 0 1 3.337 3.337v40.236a3.346 3.346 0 0 1-3.337 3.337h-18.64l1.634 7.428h4.257a.738.738 0 1 1 0 1.477h-27.86a.738.738 0 1 1 0-1.477h4.256l1.634-7.428H5.337A3.346 3.346 0 0 1 2 50.758V10.522a3.346 3.346 0 0 1 3.338-3.337h7.268v-.027a1.61 1.61 0 0 1 .468-1.104l2.575-2.575a1.61 1.61 0 0 1 1.108-.469c.405-.009.8.12 1.124.363l3.046 2.27c.14-.063.277-.125.42-.184l.037-.017c.152-.063.307-.123.466-.18l.55-3.758c.056-.403.246-.775.54-1.056A1.61 1.61 0 0 1 24.053 0h3.64c.415 0 .813.161 1.112.448.294.281.485.653.54 1.056l.55 3.757a10.72 10.72 0 0 1 .92.38l3.044-2.268c.323-.244.72-.372 1.125-.363a1.61 1.61 0 0 1 1.105.469l2.574 2.575c.293.294.46.69.469 1.104v.027zm-10.29 6.769-3.7 3.7-1.88-1.88a.739.739 0 1 0-1.045 1.044l2.401 2.401a.737.737 0 0 0 1.044 0L29.883 15a.738.738 0 0 0-1.044-1.045zm11.337 47.569-1.635-7.428H25.49l-1.634 7.428ZM25.869 8.626a7.647 7.647 0 1 0-.002 15.293 7.647 7.647 0 0 0 .002-15.293Zm4.362 3.284a6.169 6.169 0 1 0-8.723 8.725 6.169 6.169 0 0 0 8.723-8.725Zm-16.98-3.25H5.338a1.869 1.869 0 0 0-1.862 1.861v34.96h57.081v-34.96a1.869 1.869 0 0 0-1.861-1.86h-20.21l-1.99 2.667c.07.15.14.303.202.458.06.156.123.308.18.463l3.758.55c.402.056.774.246 1.055.54.287.3.448.698.448 1.112v3.64c0 .415-.16.813-.448 1.112-.28.294-.652.485-1.055.54l-3.758.55a13.587 13.587 0 0 1-.381.92l1.167 1.568h14.233a2.544 2.544 0 0 1 2.538 2.54v11.783a2.543 2.543 0 0 1-2.538 2.538H34.718a2.543 2.543 0 0 1-2.538-2.538V27.92l-1.37-1.02c-.149.07-.302.14-.458.202-.155.06-.307.124-.462.18l-.55 3.758a1.81 1.81 0 0 1-.54 1.056 1.61 1.61 0 0 1-1.112.448h-3.64a1.61 1.61 0 0 1-1.112-.448 1.808 1.808 0 0 1-.541-1.056l-.549-3.758a10.808 10.808 0 0 1-.921-.381l-3.05 2.27a1.8 1.8 0 0 1-1.124.363 1.616 1.616 0 0 1-1.105-.469l-2.572-2.574a1.61 1.61 0 0 1-.469-1.106 1.798 1.798 0 0 1 .364-1.124l2.27-3.046a8.39 8.39 0 0 1-.202-.458c-.062-.156-.124-.307-.18-.463l-3.759-.55a1.807 1.807 0 0 1-1.055-.54 1.61 1.61 0 0 1-.448-1.112v-3.64c0-.415.16-.813.448-1.112a1.81 1.81 0 0 1 1.055-.54l3.758-.551a11.673 11.673 0 0 1 .381-.921L13.25 8.66zm22.58 14.122-.783-1.05a.736.736 0 0 1-.063-.776c.13-.252.248-.507.35-.76.103-.253.205-.523.292-.793a.735.735 0 0 1 .594-.503l4.2-.615a.333.333 0 0 0 .197-.09.152.152 0 0 0 .044-.103v-3.64a.154.154 0 0 0-.042-.103.336.336 0 0 0-.196-.091l-4.2-.614a.738.738 0 0 1-.608-.548 10.911 10.911 0 0 0-.63-1.51.737.737 0 0 1 .083-.8l2.52-3.38a.337.337 0 0 0 .075-.21.15.15 0 0 0-.042-.102l-2.578-2.572a.15.15 0 0 0-.102-.042.342.342 0 0 0-.21.075l-3.405 2.536a.736.736 0 0 1-.776.064 9.265 9.265 0 0 0-.76-.35c-.265-.11-.529-.207-.79-.291a.734.734 0 0 1-.503-.594l-.614-4.2a.336.336 0 0 0-.091-.197.153.153 0 0 0-.103-.044h-3.64a.152.152 0 0 0-.102.044.336.336 0 0 0-.091.197l-.614 4.2a.739.739 0 0 1-.548.607c-.248.08-.497.174-.747.28l-.037.014a9.928 9.928 0 0 0-.725.339.737.737 0 0 1-.802-.083l-3.38-2.52a.343.343 0 0 0-.21-.074.153.153 0 0 0-.102.042L14.118 7.1a.144.144 0 0 0-.042.102c0 .076.027.15.075.21l2.536 3.4a.736.736 0 0 1 .063.775 10.657 10.657 0 0 0-.641 1.55.735.735 0 0 1-.595.503l-4.2.613a.333.333 0 0 0-.196.091.15.15 0 0 0-.044.103v3.64a.15.15 0 0 0 .044.103.328.328 0 0 0 .196.09l4.2.615a.736.736 0 0 1 .608.548c.083.255.175.505.277.75.105.253.223.506.35.76a.734.734 0 0 1-.083.8l-2.52 3.38a.34.34 0 0 0-.075.21c0 .038.016.074.042.101l2.574 2.574a.147.147 0 0 0 .103.042.34.34 0 0 0 .21-.075l3.404-2.536a.739.739 0 0 1 .776-.063c.252.13.506.247.76.35.253.102.522.204.793.29a.738.738 0 0 1 .503.594l.614 4.2c.007.074.04.143.09.196a.15.15 0 0 0 .103.044h3.64a.15.15 0 0 0 .103-.044.333.333 0 0 0 .09-.196l.615-4.2a.738.738 0 0 1 .548-.608 9.99 9.99 0 0 0 .75-.276c.253-.105.506-.222.76-.35a.736.736 0 0 1 .8.081l.825.615v-.76a2.544 2.544 0 0 1 2.538-2.54zm3.256 4.36-3.55 3.548a.737.737 0 0 0 0 1.044l3.55 3.55a.739.739 0 0 0 1.043-1.045l-3.03-3.027 3.028-3.027a.738.738 0 0 0-1.041-1.043zm7.405 1.043 3.025 3.027-3.027 3.027a.738.738 0 0 0 1.044 1.044l3.549-3.549a.739.739 0 0 0 0-1.043l-3.55-3.55a.738.738 0 1 0-1.043 1.044zm-2.878-.952-2.03 7.577a.737.737 0 1 0 1.426.38l2.027-7.576a.737.737 0 0 0-1.425-.38zm9.35 9.87V25.322a1.068 1.068 0 0 0-1.067-1.062H34.718a1.067 1.067 0 0 0-1.062 1.062v11.783a1.069 1.069 0 0 0 1.062 1.062h17.179a1.068 1.068 0 0 0 1.062-1.062zM3.476 46.96v3.799a1.869 1.869 0 0 0 1.862 1.86h53.358a1.869 1.869 0 0 0 1.861-1.86v-3.8z" fill="#000"/></svg>